# Blender 5.2.2 LTS
# www.blender.org
mtllib Gaika.mtl
o bolt_41
v -0.297516 0.471056 -0.659943
v -0.365158 0.471056 -0.632473
v -0.422770 0.471056 -0.587628
v -0.508867 0.493248 -0.466511
v -0.587740 0.502406 -0.339332
v -0.658444 0.493248 -0.207436
v -0.720286 0.471056 -0.072315
v -0.730317 0.471056 -0.000000
v -0.720286 0.471056 0.072315
v -0.658444 0.493248 0.207436
v -0.587740 0.502406 0.339332
v -0.508867 0.493248 0.466511
v -0.422770 0.471056 0.587628
v -0.365159 0.471056 0.632473
v -0.297516 0.471056 0.659943
v -0.149577 0.493248 0.673948
v -0.000000 0.502406 0.678663
v 0.149577 0.493248 0.673948
v 0.297516 0.471056 0.659943
v 0.365158 0.471056 0.632473
v 0.422769 0.471056 0.587629
v 0.508867 0.493248 0.466511
v 0.587740 0.502406 0.339332
v 0.658444 0.493248 0.207436
v 0.720286 0.471056 0.072315
v 0.730317 0.471056 -0.000000
v 0.720286 0.471056 -0.072315
v 0.658444 0.493248 -0.207436
v 0.587740 0.502406 -0.339332
v 0.508867 0.493248 -0.466511
v 0.422770 0.471056 -0.587628
v 0.365158 0.471056 -0.632473
v 0.297516 0.471056 -0.659943
v 0.149577 0.493248 -0.673948
v 0.000000 0.502406 -0.678663
v -0.149577 0.493248 -0.673948
v -0.381921 0.006378 -0.730126
v -0.379589 -0.000000 -0.710991
v -0.382699 0.025513 -0.736504
v -0.416586 0.006378 -0.721549
v -0.419906 0.025513 -0.727298
v -0.406628 -0.000000 -0.704301
v 0.381921 0.006378 -0.730126
v 0.379589 -0.000000 -0.710991
v 0.382699 0.025513 -0.736504
v 0.191349 0.006378 -0.730126
v 0.191349 0.025513 -0.736504
v 0.191349 -0.000000 -0.710991
v 0.416586 0.006378 -0.721549
v 0.406628 -0.000000 -0.704301
v 0.419906 0.025513 -0.727298
v -0.381741 0.349139 -0.732729
v -0.380886 0.369891 -0.721156
v -0.380681 0.325213 -0.736750
v -0.190772 0.393847 -0.732917
v -0.187234 0.369874 -0.736504
v -0.193156 0.415294 -0.722154
v 0.381741 0.349139 -0.732729
v 0.380886 0.369891 -0.721157
v 0.380681 0.325213 -0.736750
v 0.417747 0.349197 -0.723559
v 0.419906 0.325213 -0.727298
v 0.411271 0.370122 -0.712342
v -0.417747 0.349197 -0.723559
v -0.411271 0.370122 -0.712342
v -0.419906 0.325213 -0.727298
v -0.000000 0.006378 -0.730126
v -0.000000 0.025513 -0.736504
v -0.000000 -0.000000 -0.710991
v -0.191349 0.006378 -0.730126
v -0.191349 0.025513 -0.736504
v -0.191349 -0.000000 -0.710991
v -0.000000 0.412366 -0.732990
v -0.000000 0.387796 -0.736504
v -0.000000 0.434815 -0.722448
v 0.190772 0.393847 -0.732917
v 0.187233 0.369874 -0.736504
v 0.193156 0.415294 -0.722154
v 0.727982 0.006378 -0.199350
v 0.711411 -0.000000 -0.189782
v 0.733506 0.025513 -0.202539
v 0.632308 0.006378 -0.365063
v 0.637831 0.025513 -0.368252
v 0.615736 -0.000000 -0.355495
v 0.634788 0.412366 -0.366495
v 0.625658 0.434815 -0.361224
v 0.637831 0.387796 -0.368252
v 0.730110 0.393847 -0.201245
v 0.731448 0.369874 -0.206103
v 0.721981 0.415294 -0.193799
v 0.441347 0.006378 -0.695817
v 0.425942 -0.000000 -0.684229
v 0.446482 0.025513 -0.699679
v 0.443691 0.349139 -0.696962
v 0.447704 0.325213 -0.698055
v 0.434097 0.369891 -0.690435
v 0.825432 0.349139 -0.035767
v 0.814983 0.369891 -0.030721
v 0.828385 0.325213 -0.038696
v 0.835494 0.349197 0.000000
v 0.839811 0.325213 0.000000
v 0.822541 0.370123 0.000000
v 0.833173 0.006378 0.000000
v 0.813256 0.000000 0.000000
v 0.839811 0.025513 0.000000
v 0.823268 0.006378 -0.034309
v 0.829181 0.025513 -0.036825
v 0.805531 -0.000000 -0.026762
v 0.536633 0.006378 -0.530777
v 0.520062 -0.000000 -0.521209
v 0.542157 0.025513 -0.533966
v 0.539339 0.393847 -0.531672
v 0.544215 0.369874 -0.530401
v 0.528826 0.415294 -0.528355
v 0.536633 0.006378 0.530777
v 0.520062 0.000000 0.521209
v 0.542157 0.025513 0.533966
v 0.632308 0.006378 0.365063
v 0.637831 0.025513 0.368252
v 0.615736 0.000000 0.355496
v 0.634788 0.412366 0.366495
v 0.625658 0.434815 0.361224
v 0.637831 0.387796 0.368252
v 0.539339 0.393847 0.531672
v 0.544215 0.369874 0.530401
v 0.528826 0.415294 0.528355
v 0.823268 0.006378 0.034309
v 0.805531 0.000000 0.026762
v 0.829181 0.025513 0.036825
v 0.825432 0.349139 0.035767
v 0.828385 0.325213 0.038696
v 0.814983 0.369891 0.030721
v 0.443691 0.349139 0.696962
v 0.434097 0.369891 0.690435
v 0.447704 0.325213 0.698055
v 0.417747 0.349197 0.723559
v 0.419906 0.325213 0.727298
v 0.411271 0.370123 0.712342
v 0.416586 0.006378 0.721549
v 0.406628 0.000000 0.704301
v 0.419906 0.025513 0.727298
v 0.441347 0.006378 0.695817
v 0.446482 0.025513 0.699679
v 0.425942 0.000000 0.684230
v 0.727982 0.006378 0.199350
v 0.711411 0.000000 0.189782
v 0.733506 0.025513 0.202539
v 0.730110 0.393847 0.201245
v 0.731448 0.369874 0.206103
v 0.721981 0.415294 0.193799
v -0.191349 0.006378 0.730126
v -0.191349 0.000000 0.710991
v -0.191349 0.025513 0.736504
v -0.000000 0.006378 0.730126
v -0.000000 0.025513 0.736504
v -0.000000 0.000000 0.710991
v -0.000000 0.412366 0.732990
v -0.000000 0.434815 0.722448
v -0.000000 0.387796 0.736504
v -0.190772 0.393847 0.732917
v -0.187234 0.369874 0.736504
v -0.193156 0.415294 0.722154
v 0.381921 0.006378 0.730126
v 0.379589 0.000000 0.710991
v 0.382699 0.025513 0.736504
v 0.381741 0.349139 0.732729
v 0.380681 0.325213 0.736750
v 0.380886 0.369891 0.721157
v -0.381741 0.349139 0.732729
v -0.380886 0.369891 0.721156
v -0.380681 0.325213 0.736750
v -0.417747 0.349197 0.723559
v -0.419906 0.325213 0.727298
v -0.411271 0.370123 0.712342
v -0.416586 0.006378 0.721549
v -0.406628 0.000000 0.704301
v -0.419906 0.025513 0.727298
v -0.381921 0.006378 0.730126
v -0.382699 0.025513 0.736504
v -0.379589 0.000000 0.710991
v 0.191349 0.006378 0.730126
v 0.191349 0.000000 0.710991
v 0.191349 0.025513 0.736504
v 0.190772 0.393847 0.732917
v 0.187233 0.369874 0.736504
v 0.193155 0.415294 0.722154
v -0.727982 0.006378 0.199349
v -0.711411 0.000000 0.189782
v -0.733506 0.025513 0.202539
v -0.632308 0.006378 0.365063
v -0.637831 0.025513 0.368252
v -0.615736 0.000000 0.355495
v -0.634788 0.412366 0.366495
v -0.625658 0.434815 0.361224
v -0.637831 0.387796 0.368252
v -0.730110 0.393847 0.201245
v -0.731448 0.369874 0.206103
v -0.721981 0.415294 0.193799
v -0.441347 0.006378 0.695817
v -0.425942 0.000000 0.684229
v -0.446482 0.025513 0.699679
v -0.443691 0.349139 0.696962
v -0.447704 0.325213 0.698054
v -0.434097 0.369891 0.690435
v -0.825432 0.349139 0.035767
v -0.814983 0.369891 0.030721
v -0.828385 0.325213 0.038696
v -0.835494 0.349197 -0.000000
v -0.839811 0.325213 -0.000000
v -0.822541 0.370123 -0.000000
v -0.833173 0.006378 0.000000
v -0.813256 0.000000 0.000000
v -0.839811 0.025513 0.000000
v -0.823268 0.006378 0.034309
v -0.829181 0.025513 0.036825
v -0.805531 0.000000 0.026761
v -0.536633 0.006378 0.530776
v -0.520062 0.000000 0.521209
v -0.542157 0.025513 0.533966
v -0.539339 0.393847 0.531672
v -0.544215 0.369874 0.530401
v -0.528826 0.415294 0.528355
v -0.536633 0.006378 -0.530776
v -0.520062 -0.000000 -0.521209
v -0.542157 0.025513 -0.533966
v -0.632308 0.006378 -0.365063
v -0.637831 0.025513 -0.368252
v -0.615736 -0.000000 -0.355495
v -0.634788 0.412366 -0.366495
v -0.625658 0.434815 -0.361224
v -0.637831 0.387796 -0.368252
v -0.539339 0.393847 -0.531672
v -0.544215 0.369874 -0.530401
v -0.528826 0.415294 -0.528354
v -0.823268 0.006378 -0.034309
v -0.805531 -0.000000 -0.026761
v -0.829181 0.025513 -0.036825
v -0.825432 0.349139 -0.035767
v -0.828385 0.325213 -0.038696
v -0.814983 0.369891 -0.030721
v -0.443691 0.349139 -0.696962
v -0.434097 0.369891 -0.690435
v -0.447704 0.325213 -0.698054
v -0.441347 0.006378 -0.695817
v -0.446482 0.025513 -0.699679
v -0.425942 -0.000000 -0.684229
v -0.727982 0.006378 -0.199349
v -0.711411 -0.000000 -0.189782
v -0.733506 0.025513 -0.202539
v -0.730110 0.393847 -0.201245
v -0.731448 0.369874 -0.206103
v -0.721981 0.415294 -0.193799
v 0.618682 0.586627 -0.000000
v 0.637869 0.572346 -0.000000
v 0.595212 0.591387 -0.000000
v 0.609071 0.586567 -0.106979
v 0.586169 0.591387 -0.103357
v 0.627335 0.572108 -0.108948
v 0.580882 0.586225 -0.211138
v 0.559316 0.591387 -0.203574
v 0.597448 0.570739 -0.216311
v 0.535012 0.586067 -0.309185
v 0.515469 0.591387 -0.297606
v 0.549281 0.570109 -0.318311
v 0.473292 0.586225 -0.397490
v 0.455959 0.591387 -0.382595
v 0.486055 0.570739 -0.409250
v 0.397182 0.586567 -0.473982
v 0.382595 0.591387 -0.455959
v 0.408019 0.572108 -0.488814
v 0.309341 0.586626 -0.535794
v 0.297606 0.591387 -0.515469
v 0.318934 0.572346 -0.552411
v 0.211889 0.586567 -0.580961
v 0.203574 0.591387 -0.559316
v 0.219316 0.572108 -0.597762
v 0.107590 0.586225 -0.608628
v 0.103357 0.591387 -0.586169
v 0.111394 0.570739 -0.625561
v -0.000256 0.586067 -0.617926
v 0.000000 0.591387 -0.595212
v -0.001025 0.570109 -0.634847
v -0.107590 0.586225 -0.608628
v -0.103357 0.591387 -0.586169
v -0.111394 0.570739 -0.625561
v -0.211889 0.586567 -0.580961
v -0.203574 0.591387 -0.559316
v -0.219315 0.572108 -0.597762
v -0.309341 0.586626 -0.535794
v -0.297606 0.591387 -0.515469
v -0.318934 0.572346 -0.552411
v -0.397182 0.586567 -0.473982
v -0.382595 0.591387 -0.455959
v -0.408019 0.572108 -0.488814
v -0.473292 0.586225 -0.397490
v -0.455959 0.591387 -0.382595
v -0.486054 0.570739 -0.409250
v -0.535268 0.586067 -0.308741
v -0.515469 0.591387 -0.297606
v -0.550306 0.570109 -0.316536
v -0.580882 0.586225 -0.211138
v -0.559316 0.591387 -0.203575
v -0.597448 0.570739 -0.216311
v -0.609071 0.586567 -0.106979
v -0.586169 0.591387 -0.103358
v -0.627335 0.572108 -0.108948
v -0.618682 0.586627 -0.000000
v -0.595212 0.591387 -0.000000
v -0.637869 0.572346 -0.000000
v -0.609071 0.586567 0.106978
v -0.586169 0.591387 0.103357
v -0.627335 0.572108 0.108948
v -0.580882 0.586225 0.211138
v -0.559316 0.591387 0.203574
v -0.597448 0.570739 0.216310
v -0.535012 0.586067 0.309185
v -0.515469 0.591387 0.297606
v -0.549281 0.570109 0.318311
v -0.473292 0.586225 0.397490
v -0.455959 0.591387 0.382595
v -0.486055 0.570739 0.409250
v -0.397182 0.586567 0.473982
v -0.382595 0.591387 0.455959
v -0.408019 0.572108 0.488814
v -0.309341 0.586627 0.535794
v -0.297606 0.591387 0.515468
v -0.318935 0.572346 0.552410
v -0.211890 0.586567 0.580961
v -0.203575 0.591387 0.559316
v -0.219316 0.572108 0.597762
v -0.107590 0.586225 0.608628
v -0.103358 0.591387 0.586169
v -0.111394 0.570739 0.625561
v 0.000256 0.586067 0.617926
v -0.000000 0.591387 0.595212
v 0.001024 0.570109 0.634847
v 0.107590 0.586225 0.608628
v 0.103357 0.591387 0.586169
v 0.111394 0.570739 0.625561
v 0.211889 0.586567 0.580961
v 0.203574 0.591387 0.559316
v 0.219315 0.572108 0.597762
v 0.309340 0.586627 0.535794
v 0.297606 0.591387 0.515469
v 0.318934 0.572346 0.552411
v 0.397182 0.586567 0.473982
v 0.382595 0.591387 0.455959
v 0.408019 0.572108 0.488814
v 0.473292 0.586225 0.397490
v 0.455958 0.591387 0.382595
v 0.486054 0.570739 0.409251
v 0.535268 0.586067 0.308742
v 0.515468 0.591387 0.297606
v 0.550306 0.570109 0.316536
v 0.580882 0.586225 0.211139
v 0.559316 0.591387 0.203575
v 0.597448 0.570739 0.216311
v 0.609071 0.586567 0.106979
v 0.586169 0.591387 0.103358
v 0.627335 0.572108 0.108948
v 0.420047 0.585008 -0.000000
v 0.439255 0.591386 -0.000000
v 0.413645 0.565873 -0.000000
v 0.413666 0.585008 -0.072940
v 0.407360 0.565873 -0.071829
v 0.432582 0.591386 -0.076276
v 0.394715 0.585008 -0.143665
v 0.388699 0.565873 -0.141475
v 0.412765 0.591386 -0.150234
v 0.363772 0.585008 -0.210024
v 0.358227 0.565873 -0.206822
v 0.380406 0.591386 -0.219628
v 0.321775 0.585008 -0.270001
v 0.316870 0.565873 -0.265886
v 0.336489 0.591386 -0.282348
v 0.270001 0.585008 -0.321775
v 0.265886 0.565873 -0.316870
v 0.282348 0.591386 -0.336489
v 0.210024 0.585008 -0.363772
v 0.206822 0.565873 -0.358227
v 0.219628 0.591386 -0.380406
v 0.143665 0.585008 -0.394715
v 0.141475 0.565873 -0.388699
v 0.150234 0.591386 -0.412765
v 0.072940 0.585008 -0.413666
v 0.071829 0.565873 -0.407360
v 0.076276 0.591386 -0.432582
v 0.000000 0.585008 -0.420047
v 0.000000 0.565873 -0.413645
v 0.000000 0.591386 -0.439255
v -0.072940 0.585008 -0.413666
v -0.071829 0.565873 -0.407360
v -0.076276 0.591386 -0.432582
v -0.143665 0.585008 -0.394715
v -0.141475 0.565873 -0.388699
v -0.150234 0.591386 -0.412765
v -0.210024 0.585008 -0.363772
v -0.206822 0.565873 -0.358227
v -0.219628 0.591386 -0.380406
v -0.270001 0.585008 -0.321775
v -0.265886 0.565873 -0.316870
v -0.282348 0.591386 -0.336489
v -0.321775 0.585008 -0.270001
v -0.316870 0.565873 -0.265886
v -0.336489 0.591386 -0.282348
v -0.363772 0.585008 -0.210024
v -0.358227 0.565873 -0.206822
v -0.380406 0.591386 -0.219628
v -0.394715 0.585008 -0.143665
v -0.388699 0.565873 -0.141475
v -0.412765 0.591386 -0.150234
v -0.413666 0.585008 -0.072941
v -0.407360 0.565873 -0.071829
v -0.432582 0.591386 -0.076276
v -0.420047 0.585008 -0.000000
v -0.413645 0.565873 -0.000000
v -0.439255 0.591386 -0.000000
v -0.413666 0.585008 0.072940
v -0.407360 0.565873 0.071828
v -0.432582 0.591386 0.076276
v -0.394715 0.585008 0.143664
v -0.388699 0.565873 0.141475
v -0.412765 0.591386 0.150234
v -0.363772 0.585008 0.210023
v -0.358227 0.565873 0.206822
v -0.380406 0.591386 0.219627
v -0.321775 0.585008 0.270001
v -0.316870 0.565873 0.265885
v -0.336489 0.591386 0.282348
v -0.270001 0.585008 0.321775
v -0.265886 0.565873 0.316870
v -0.282348 0.591386 0.336489
v -0.210024 0.585008 0.363771
v -0.206822 0.565873 0.358227
v -0.219628 0.591386 0.380406
v -0.143665 0.585008 0.394715
v -0.141475 0.565873 0.388699
v -0.150234 0.591386 0.412765
v -0.072941 0.585008 0.413666
v -0.071829 0.565873 0.407360
v -0.076276 0.591386 0.432582
v -0.000000 0.585008 0.420047
v -0.000000 0.565873 0.413644
v -0.000000 0.591386 0.439255
v 0.072940 0.585008 0.413666
v 0.071828 0.565873 0.407360
v 0.076276 0.591386 0.432582
v 0.143664 0.585008 0.394715
v 0.141475 0.565873 0.388699
v 0.150234 0.591386 0.412765
v 0.210023 0.585008 0.363772
v 0.206822 0.565873 0.358227
v 0.219627 0.591386 0.380406
v 0.270001 0.585008 0.321775
v 0.265885 0.565873 0.316870
v 0.282348 0.591386 0.336489
v 0.321775 0.585008 0.270001
v 0.316870 0.565873 0.265886
v 0.336489 0.591386 0.282348
v 0.363771 0.585008 0.210024
v 0.358227 0.565873 0.206823
v 0.380406 0.591386 0.219628
v 0.394715 0.585008 0.143665
v 0.388699 0.565873 0.141475
v 0.412765 0.591386 0.150234
v 0.413666 0.585008 0.072941
v 0.407360 0.565873 0.071829
v 0.432582 0.591386 0.076276
v 0.413666 0.006378 -0.072940
v 0.432582 -0.000000 -0.076276
v 0.407360 0.025513 -0.071829
v 0.420047 0.006378 -0.000000
v 0.413645 0.025513 -0.000000
v 0.439255 -0.000000 -0.000000
v 0.394715 0.006378 -0.143665
v 0.412765 -0.000000 -0.150234
v 0.388699 0.025513 -0.141475
v 0.363772 0.006378 -0.210024
v 0.380406 -0.000000 -0.219628
v 0.358227 0.025513 -0.206822
v 0.321775 0.006378 -0.270001
v 0.336489 -0.000000 -0.282348
v 0.316870 0.025513 -0.265886
v 0.270001 0.006378 -0.321775
v 0.282348 -0.000000 -0.336489
v 0.265886 0.025513 -0.316870
v 0.210024 0.006378 -0.363772
v 0.219628 -0.000000 -0.380406
v 0.206822 0.025513 -0.358227
v 0.143665 0.006378 -0.394715
v 0.150234 -0.000000 -0.412765
v 0.141475 0.025513 -0.388699
v 0.072940 0.006378 -0.413666
v 0.076276 -0.000000 -0.432582
v 0.071829 0.025513 -0.407360
v 0.000000 0.006378 -0.420047
v 0.000000 -0.000000 -0.439255
v 0.000000 0.025513 -0.413645
v -0.072940 0.006378 -0.413666
v -0.076276 -0.000000 -0.432582
v -0.071829 0.025513 -0.407360
v -0.143665 0.006378 -0.394715
v -0.150234 -0.000000 -0.412765
v -0.141475 0.025513 -0.388699
v -0.210024 0.006378 -0.363772
v -0.219628 -0.000000 -0.380406
v -0.206822 0.025513 -0.358227
v -0.270001 0.006378 -0.321775
v -0.282348 -0.000000 -0.336489
v -0.265886 0.025513 -0.316870
v -0.321775 0.006378 -0.270001
v -0.336489 -0.000000 -0.282348
v -0.316870 0.025513 -0.265886
v -0.363772 0.006378 -0.210024
v -0.380406 -0.000000 -0.219628
v -0.358227 0.025513 -0.206822
v -0.394715 0.006378 -0.143665
v -0.412765 -0.000000 -0.150234
v -0.388699 0.025513 -0.141475
v -0.413666 0.006378 -0.072941
v -0.432582 -0.000000 -0.076276
v -0.407360 0.025513 -0.071829
v -0.420047 0.006378 -0.000000
v -0.439255 -0.000000 -0.000000
v -0.413645 0.025513 -0.000000
v -0.413666 0.006378 0.072940
v -0.432582 0.000000 0.076276
v -0.407360 0.025513 0.071828
v -0.394715 0.006378 0.143664
v -0.412765 0.000000 0.150234
v -0.388699 0.025513 0.141475
v -0.363772 0.006378 0.210023
v -0.380406 0.000000 0.219627
v -0.358227 0.025513 0.206822
v -0.321775 0.006378 0.270001
v -0.336489 0.000000 0.282348
v -0.316870 0.025513 0.265885
v -0.270001 0.006378 0.321775
v -0.282348 0.000000 0.336489
v -0.265886 0.025513 0.316870
v -0.210024 0.006378 0.363771
v -0.219628 0.000000 0.380406
v -0.206822 0.025513 0.358227
v -0.143665 0.006378 0.394715
v -0.150234 0.000000 0.412765
v -0.141475 0.025513 0.388699
v -0.072941 0.006378 0.413666
v -0.076276 0.000000 0.432582
v -0.071829 0.025513 0.407360
v -0.000000 0.006378 0.420047
v -0.000000 0.000000 0.439255
v -0.000000 0.025513 0.413645
v 0.072940 0.006378 0.413666
v 0.076276 0.000000 0.432582
v 0.071828 0.025513 0.407360
v 0.143664 0.006378 0.394715
v 0.150234 0.000000 0.412765
v 0.141475 0.025513 0.388699
v 0.210023 0.006378 0.363772
v 0.219627 0.000000 0.380406
v 0.206822 0.025513 0.358227
v 0.270001 0.006378 0.321775
v 0.282348 0.000000 0.336489
v 0.265885 0.025513 0.316870
v 0.321775 0.006378 0.270001
v 0.336489 0.000000 0.282348
v 0.316870 0.025513 0.265886
v 0.363771 0.006378 0.210024
v 0.380406 0.000000 0.219628
v 0.358227 0.025513 0.206823
v 0.394715 0.006378 0.143665
v 0.412765 0.000000 0.150234
v 0.388699 0.025513 0.141475
v 0.413666 0.006378 0.072941
v 0.432582 0.000000 0.076276
v 0.407360 0.025513 0.071829
v 0.407360 0.488678 -0.071829
v 0.407360 0.390302 -0.071829
v 0.407360 0.355473 -0.071829
v 0.407360 0.235913 -0.071829
v 0.407360 0.201084 -0.071829
v 0.407360 0.102707 -0.071829
v 0.413645 0.102707 -0.000000
v 0.413645 0.201084 -0.000000
v 0.413645 0.235913 -0.000000
v 0.413645 0.355473 -0.000000
v 0.413645 0.390302 -0.000000
v 0.413645 0.488678 -0.000000
v 0.388699 0.488678 -0.141475
v 0.388699 0.390302 -0.141475
v 0.388699 0.355473 -0.141475
v 0.388699 0.235913 -0.141475
v 0.388699 0.201084 -0.141475
v 0.388699 0.102707 -0.141475
v 0.358227 0.488678 -0.206822
v 0.358227 0.390302 -0.206822
v 0.358227 0.355473 -0.206822
v 0.358227 0.235913 -0.206822
v 0.358227 0.201084 -0.206822
v 0.358227 0.102707 -0.206822
v 0.316870 0.488678 -0.265886
v 0.316870 0.390302 -0.265886
v 0.316870 0.355473 -0.265886
v 0.316870 0.235913 -0.265886
v 0.316870 0.201084 -0.265886
v 0.316870 0.102707 -0.265886
v 0.265886 0.488678 -0.316870
v 0.265886 0.390302 -0.316870
v 0.265886 0.355473 -0.316870
v 0.265886 0.235913 -0.316870
v 0.265886 0.201084 -0.316870
v 0.265886 0.102707 -0.316870
v 0.206822 0.488678 -0.358227
v 0.206822 0.390302 -0.358227
v 0.206822 0.355473 -0.358227
v 0.206822 0.235913 -0.358227
v 0.206822 0.201084 -0.358227
v 0.206822 0.102707 -0.358227
v 0.141475 0.488678 -0.388699
v 0.141475 0.390302 -0.388699
v 0.141475 0.355473 -0.388699
v 0.141475 0.235913 -0.388699
v 0.141475 0.201084 -0.388699
v 0.141475 0.102707 -0.388699
v 0.071829 0.488678 -0.407360
v 0.071829 0.390302 -0.407360
v 0.071829 0.355473 -0.407360
v 0.071829 0.235913 -0.407360
v 0.071829 0.201084 -0.407360
v 0.071829 0.102707 -0.407360
v 0.000000 0.488678 -0.413645
v 0.000000 0.390302 -0.413645
v 0.000000 0.355473 -0.413645
v 0.000000 0.235913 -0.413645
v 0.000000 0.201084 -0.413645
v 0.000000 0.102707 -0.413645
v -0.071829 0.488678 -0.407360
v -0.071829 0.390302 -0.407360
v -0.071829 0.355473 -0.407360
v -0.071829 0.235913 -0.407360
v -0.071829 0.201084 -0.407360
v -0.071829 0.102707 -0.407360
v -0.141475 0.488678 -0.388699
v -0.141475 0.390302 -0.388699
v -0.141475 0.355473 -0.388699
v -0.141475 0.235913 -0.388699
v -0.141475 0.201084 -0.388699
v -0.141475 0.102707 -0.388699
v -0.206822 0.488678 -0.358227
v -0.206822 0.390302 -0.358227
v -0.206822 0.355473 -0.358227
v -0.206822 0.235913 -0.358227
v -0.206822 0.201084 -0.358227
v -0.206822 0.102707 -0.358227
v -0.265886 0.488678 -0.316870
v -0.265886 0.390302 -0.316870
v -0.265886 0.355473 -0.316870
v -0.265886 0.235913 -0.316870
v -0.265886 0.201084 -0.316870
v -0.265886 0.102707 -0.316870
v -0.316870 0.488678 -0.265886
v -0.316870 0.390302 -0.265886
v -0.316870 0.355473 -0.265886
v -0.316870 0.235913 -0.265886
v -0.316870 0.201084 -0.265886
v -0.316870 0.102707 -0.265886
v -0.358227 0.488678 -0.206822
v -0.358227 0.390302 -0.206822
v -0.358227 0.355473 -0.206822
v -0.358227 0.235913 -0.206822
v -0.358227 0.201084 -0.206822
v -0.358227 0.102707 -0.206822
v -0.388699 0.488678 -0.141475
v -0.388699 0.390302 -0.141475
v -0.388699 0.355473 -0.141475
v -0.388699 0.235913 -0.141475
v -0.388699 0.201084 -0.141475
v -0.388699 0.102707 -0.141475
v -0.407360 0.488678 -0.071829
v -0.407360 0.390302 -0.071829
v -0.407360 0.355473 -0.071829
v -0.407360 0.235913 -0.071829
v -0.407360 0.201084 -0.071829
v -0.407360 0.102707 -0.071829
v -0.413645 0.488678 -0.000000
v -0.413645 0.390302 -0.000000
v -0.413645 0.355473 -0.000000
v -0.413645 0.235913 -0.000000
v -0.413645 0.201084 -0.000000
v -0.413645 0.102707 -0.000000
v -0.407360 0.488678 0.071828
v -0.407360 0.390302 0.071828
v -0.407360 0.355473 0.071828
v -0.407360 0.235913 0.071828
v -0.407360 0.201084 0.071828
v -0.407360 0.102707 0.071828
v -0.388699 0.488678 0.141475
v -0.388699 0.390302 0.141475
v -0.388699 0.355473 0.141475
v -0.388699 0.235913 0.141475
v -0.388699 0.201084 0.141475
v -0.388699 0.102707 0.141475
v -0.358227 0.488678 0.206822
v -0.358227 0.390302 0.206822
v -0.358227 0.355473 0.206822
v -0.358227 0.235913 0.206822
v -0.358227 0.201084 0.206822
v -0.358227 0.102707 0.206822
v -0.316870 0.488678 0.265885
v -0.316870 0.390302 0.265885
v -0.316870 0.355473 0.265885
v -0.316870 0.235913 0.265885
v -0.316870 0.201084 0.265885
v -0.316870 0.102707 0.265885
v -0.265886 0.488678 0.316870
v -0.265886 0.390302 0.316870
v -0.265886 0.355473 0.316870
v -0.265886 0.235913 0.316870
v -0.265886 0.201084 0.316870
v -0.265886 0.102707 0.316870
v -0.206822 0.488678 0.358227
v -0.206822 0.390302 0.358227
v -0.206822 0.355473 0.358227
v -0.206822 0.235913 0.358227
v -0.206822 0.201084 0.358227
v -0.206822 0.102707 0.358227
v -0.141475 0.488678 0.388699
v -0.141475 0.390302 0.388699
v -0.141475 0.355473 0.388699
v -0.141475 0.235913 0.388699
v -0.141475 0.201084 0.388699
v -0.141475 0.102707 0.388699
v -0.071829 0.488678 0.407360
v -0.071829 0.390302 0.407360
v -0.071829 0.355473 0.407360
v -0.071829 0.235913 0.407360
v -0.071829 0.201084 0.407360
v -0.071829 0.102707 0.407360
v -0.000000 0.488678 0.413644
v -0.000000 0.390302 0.413645
v -0.000000 0.355473 0.413645
v -0.000000 0.235913 0.413645
v -0.000000 0.201084 0.413645
v -0.000000 0.102707 0.413645
v 0.071828 0.488678 0.407360
v 0.071828 0.390302 0.407360
v 0.071828 0.355473 0.407360
v 0.071828 0.235913 0.407360
v 0.071828 0.201084 0.407360
v 0.071828 0.102707 0.407360
v 0.141475 0.488678 0.388699
v 0.141475 0.390302 0.388699
v 0.141475 0.355473 0.388699
v 0.141475 0.235913 0.388699
v 0.141475 0.201084 0.388699
v 0.141475 0.102707 0.388699
v 0.206822 0.488678 0.358227
v 0.206822 0.390302 0.358227
v 0.206822 0.355473 0.358227
v 0.206822 0.235913 0.358227
v 0.206822 0.201084 0.358227
v 0.206822 0.102707 0.358227
v 0.265885 0.488678 0.316870
v 0.265885 0.390302 0.316870
v 0.265885 0.355473 0.316870
v 0.265885 0.235913 0.316870
v 0.265885 0.201084 0.316870
v 0.265885 0.102707 0.316870
v 0.316870 0.488678 0.265886
v 0.316870 0.390302 0.265886
v 0.316870 0.355473 0.265886
v 0.316870 0.235913 0.265886
v 0.316870 0.201084 0.265886
v 0.316870 0.102707 0.265886
v 0.358227 0.488678 0.206823
v 0.358227 0.390302 0.206823
v 0.358227 0.355473 0.206823
v 0.358227 0.235913 0.206823
v 0.358227 0.201084 0.206823
v 0.358227 0.102707 0.206823
v 0.388699 0.488678 0.141475
v 0.388699 0.390302 0.141475
v 0.388699 0.355473 0.141475
v 0.388699 0.235913 0.141475
v 0.388699 0.201084 0.141475
v 0.388699 0.102707 0.141475
v 0.407360 0.488678 0.071829
v 0.407360 0.390302 0.071829
v 0.407360 0.355473 0.071829
v 0.407360 0.235913 0.071829
v 0.407360 0.201084 0.071829
v 0.407360 0.102707 0.071829
v 0.379497 0.295693 -0.000000
v 0.373732 0.295693 -0.065899
v 0.356610 0.295693 -0.129796
v 0.328654 0.295693 -0.189749
v 0.290711 0.295693 -0.243936
v 0.243936 0.295693 -0.290711
v 0.189748 0.295693 -0.328654
v 0.129796 0.295693 -0.356611
v 0.065899 0.295693 -0.373732
v 0.000000 0.295693 -0.379497
v -0.065899 0.295693 -0.373732
v -0.129796 0.295693 -0.356611
v -0.189749 0.295693 -0.328654
v -0.243936 0.295693 -0.290712
v -0.290711 0.295693 -0.243936
v -0.328654 0.295693 -0.189749
v -0.356610 0.295693 -0.129796
v -0.373732 0.295693 -0.065899
v -0.379497 0.295693 0.000000
v -0.373732 0.295693 0.065899
v -0.356611 0.295693 0.129796
v -0.328654 0.295693 0.189748
v -0.290712 0.295693 0.243936
v -0.243936 0.295693 0.290711
v -0.189749 0.295693 0.328654
v -0.129796 0.295693 0.356610
v -0.065899 0.295693 0.373731
v 0.000000 0.295693 0.379497
v 0.065899 0.295693 0.373732
v 0.129795 0.295693 0.356611
v 0.189748 0.295693 0.328654
v 0.243936 0.295693 0.290712
v 0.290711 0.295693 0.243936
v 0.328654 0.295693 0.189749
v 0.356610 0.295693 0.129796
v 0.373731 0.295693 0.065899
v 0.379497 0.141305 -0.000000
v 0.373732 0.141305 -0.065899
v 0.356610 0.141305 -0.129796
v 0.328654 0.141305 -0.189749
v 0.290711 0.141305 -0.243936
v 0.243936 0.141305 -0.290711
v 0.189748 0.141305 -0.328654
v 0.129796 0.141305 -0.356611
v 0.065899 0.141305 -0.373732
v 0.000000 0.141305 -0.379497
v -0.065899 0.141305 -0.373732
v -0.129796 0.141305 -0.356611
v -0.189749 0.141305 -0.328654
v -0.243936 0.141305 -0.290712
v -0.290711 0.141305 -0.243936
v -0.328654 0.141305 -0.189749
v -0.356610 0.141305 -0.129796
v -0.373732 0.141305 -0.065899
v -0.379497 0.141305 0.000000
v -0.373732 0.141305 0.065899
v -0.356611 0.141305 0.129796
v -0.328654 0.141305 0.189748
v -0.290712 0.141305 0.243936
v -0.243936 0.141305 0.290711
v -0.189749 0.141305 0.328654
v -0.129796 0.141305 0.356610
v -0.065899 0.141305 0.373731
v 0.000000 0.141305 0.379497
v 0.065899 0.141305 0.373732
v 0.129795 0.141305 0.356611
v 0.189748 0.141305 0.328654
v 0.243936 0.141305 0.290712
v 0.290711 0.141305 0.243936
v 0.328654 0.141305 0.189749
v 0.356610 0.141305 0.129796
v 0.373731 0.141305 0.065899
v 0.373732 0.450081 -0.065899
v 0.356610 0.450081 -0.129796
v 0.328654 0.450081 -0.189749
v 0.290711 0.450081 -0.243936
v 0.243936 0.450081 -0.290711
v 0.189748 0.450081 -0.328654
v 0.129796 0.450081 -0.356611
v 0.065899 0.450081 -0.373732
v 0.000000 0.450081 -0.379497
v -0.065899 0.450081 -0.373732
v -0.129796 0.450081 -0.356611
v -0.189749 0.450081 -0.328654
v -0.243936 0.450081 -0.290712
v -0.290711 0.450081 -0.243936
v -0.328654 0.450081 -0.189749
v -0.356610 0.450081 -0.129796
v -0.373732 0.450081 -0.065899
v -0.379497 0.450081 0.000000
v -0.373732 0.450081 0.065899
v -0.356611 0.450081 0.129796
v -0.328654 0.450081 0.189748
v -0.290712 0.450081 0.243936
v -0.243936 0.450081 0.290711
v -0.189749 0.450081 0.328654
v -0.129796 0.450081 0.356610
v -0.065899 0.450081 0.373731
v 0.000000 0.450081 0.379497
v 0.065899 0.450081 0.373732
v 0.129795 0.450081 0.356611
v 0.189748 0.450081 0.328654
v 0.243936 0.450081 0.290712
v 0.290711 0.450081 0.243936
v 0.328654 0.450081 0.189749
v 0.356610 0.450081 0.129796
v 0.373731 0.450081 0.065899
v 0.379497 0.450081 -0.000000
vn -0.0000 -0.0179 -0.9998
vn -0.0000 0.0028 -1.0000
vn -0.0002 0.0028 -1.0000
vn -0.0107 -0.0184 -0.9998
vn -0.4999 -0.0186 -0.8659
vn -0.5000 0.0127 -0.8660
vn -0.0086 0.0019 -1.0000
vn 0.0086 0.0019 -1.0000
vn 0.5000 0.0127 -0.8660
vn 0.4999 -0.0186 -0.8659
vn 0.0106 -0.0184 -0.9998
vn 0.0002 0.0028 -1.0000
vn 0.8659 -0.0179 -0.4999
vn 0.8660 0.0028 -0.5000
vn 0.8659 0.0028 -0.5001
vn 0.8605 -0.0184 -0.5091
vn 0.8617 0.0019 -0.5074
vn 0.8703 0.0019 -0.4926
vn 0.9999 0.0127 -0.0000
vn 0.9998 -0.0186 -0.0000
vn 0.8712 -0.0184 -0.4907
vn 0.8661 0.0028 -0.4998
vn 0.8659 -0.0179 0.4999
vn 0.8660 0.0028 0.5000
vn 0.8661 0.0028 0.4998
vn 0.8712 -0.0184 0.4907
vn 0.8703 0.0019 0.4926
vn 0.8617 0.0019 0.5074
vn 0.5000 0.0127 0.8660
vn 0.4999 -0.0186 0.8659
vn 0.8605 -0.0184 0.5091
vn 0.8659 0.0028 0.5001
vn -0.0000 -0.0179 0.9998
vn -0.0000 0.0028 1.0000
vn 0.0002 0.0028 1.0000
vn 0.0107 -0.0184 0.9998
vn 0.0086 0.0019 1.0000
vn -0.0086 0.0019 1.0000
vn -0.5000 0.0127 0.8660
vn -0.4999 -0.0186 0.8659
vn -0.0106 -0.0184 0.9998
vn -0.0002 0.0028 1.0000
vn -0.8659 -0.0179 0.4999
vn -0.8660 0.0028 0.5000
vn -0.8659 0.0028 0.5001
vn -0.8605 -0.0184 0.5091
vn -0.8617 0.0019 0.5074
vn -0.8703 0.0019 0.4926
vn -0.9999 0.0127 -0.0000
vn -0.9998 -0.0186 -0.0000
vn -0.8712 -0.0184 0.4907
vn -0.8661 0.0028 0.4998
vn -0.8659 -0.0179 -0.4999
vn -0.8660 0.0028 -0.5000
vn -0.8661 0.0028 -0.4998
vn -0.8712 -0.0184 -0.4907
vn -0.8703 0.0019 -0.4926
vn -0.8617 0.0019 -0.5074
vn -0.8605 -0.0184 -0.5091
vn -0.8659 0.0028 -0.5001
vn -0.1718 0.5823 -0.7946
vn -0.3767 0.6576 -0.6524
vn -0.3692 0.6743 -0.6395
vn -0.2121 0.6269 -0.7497
vn -0.6023 0.5823 -0.5461
vn -0.5432 0.6269 -0.5585
vn -0.6709 0.5435 -0.5044
vn -0.6484 0.5674 -0.5076
vn -0.7357 0.5276 -0.4247
vn -0.7269 0.5435 -0.4198
vn -0.7723 0.5435 -0.3288
vn -0.7638 0.5674 -0.3076
vn -0.7741 0.5823 -0.2485
vn -0.7553 0.6269 -0.1911
vn -0.7534 0.6576 -0.0000
vn -0.7384 0.6743 -0.0000
vn -0.7741 0.5823 0.2485
vn -0.7553 0.6269 0.1911
vn -0.7723 0.5435 0.3288
vn -0.7638 0.5673 0.3077
vn -0.7357 0.5276 0.4247
vn -0.7270 0.5435 0.4196
vn -0.6709 0.5435 0.5045
vn -0.6483 0.5674 0.5077
vn -0.6023 0.5823 0.5461
vn -0.5432 0.6269 0.5585
vn -0.3767 0.6576 0.6524
vn -0.3692 0.6743 0.6395
vn -0.1718 0.5823 0.7946
vn -0.2121 0.6269 0.7497
vn -0.1014 0.5435 0.8333
vn -0.1154 0.5674 0.8153
vn -0.0000 0.5276 0.8495
vn -0.0001 0.5435 0.8394
vn 0.1014 0.5435 0.8333
vn 0.1155 0.5674 0.8153
vn 0.1718 0.5823 0.7946
vn 0.2121 0.6269 0.7497
vn 0.3767 0.6576 0.6524
vn 0.3692 0.6743 0.6395
vn 0.6023 0.5823 0.5461
vn 0.5432 0.6269 0.5585
vn 0.6709 0.5435 0.5044
vn 0.6484 0.5674 0.5076
vn 0.7357 0.5276 0.4247
vn 0.7269 0.5435 0.4198
vn 0.7723 0.5435 0.3288
vn 0.7638 0.5674 0.3076
vn 0.7741 0.5823 0.2485
vn 0.7553 0.6269 0.1911
vn 0.7534 0.6576 -0.0000
vn 0.7384 0.6743 -0.0000
vn 0.7741 0.5823 -0.2485
vn 0.7553 0.6269 -0.1911
vn 0.7723 0.5435 -0.3288
vn 0.7638 0.5673 -0.3077
vn 0.7357 0.5276 -0.4247
vn 0.7270 0.5435 -0.4196
vn 0.6709 0.5435 -0.5045
vn 0.6483 0.5674 -0.5077
vn 0.6023 0.5823 -0.5461
vn 0.5432 0.6269 -0.5585
vn 0.3767 0.6576 -0.6524
vn 0.3692 0.6743 -0.6395
vn 0.1718 0.5823 -0.7946
vn 0.2121 0.6269 -0.7497
vn 0.1014 0.5435 -0.8333
vn 0.1154 0.5674 -0.8153
vn -0.0000 0.5276 -0.8495
vn 0.0001 0.5435 -0.8394
vn -0.1014 0.5435 -0.8333
vn -0.1155 0.5674 -0.8153
vn -0.3589 0.6963 -0.6216
vn -0.2290 0.6588 -0.7166
vn -0.5061 0.6588 -0.5566
vn -0.6477 0.5825 -0.4912
vn -0.7180 0.5601 -0.4133
vn -0.7494 0.5827 -0.3144
vn -0.7351 0.6588 -0.1600
vn -0.7178 0.6963 -0.0000
vn -0.7351 0.6588 0.1600
vn -0.7492 0.5825 0.3153
vn -0.7169 0.5601 0.4152
vn -0.6470 0.5827 0.4918
vn -0.5061 0.6588 0.5566
vn -0.3589 0.6963 0.6216
vn -0.2290 0.6588 0.7166
vn -0.1015 0.5825 0.8065
vn 0.0011 0.5601 0.8285
vn 0.1025 0.5827 0.8062
vn 0.2290 0.6588 0.7166
vn 0.3589 0.6963 0.6216
vn 0.5061 0.6588 0.5566
vn 0.6477 0.5825 0.4912
vn 0.7180 0.5601 0.4133
vn 0.7494 0.5827 0.3144
vn 0.7351 0.6588 0.1600
vn 0.7178 0.6963 -0.0000
vn 0.7351 0.6588 -0.1600
vn 0.7492 0.5825 -0.3153
vn 0.7169 0.5601 -0.4152
vn 0.6470 0.5827 -0.4918
vn 0.5061 0.6588 -0.5566
vn 0.3589 0.6963 -0.6216
vn 0.2290 0.6588 -0.7166
vn 0.1015 0.5825 -0.8065
vn -0.0011 0.5601 -0.8285
vn -0.1025 0.5827 -0.8062
vn 0.0009 1.0000 -0.0012
vn -0.0009 1.0000 0.0002
vn -0.0009 1.0000 -0.0000
vn 0.0011 1.0000 -0.0000
vn 0.0008 1.0000 -0.0014
vn -0.0009 1.0000 0.0003
vn 0.0011 1.0000 -0.0006
vn -0.0008 1.0000 0.0005
vn 0.0016 1.0000 -0.0000
vn -0.0007 1.0000 0.0006
vn 0.0015 1.0000 -0.0002
vn -0.0006 1.0000 0.0007
vn 0.0005 1.0000 -0.0009
vn -0.0005 1.0000 0.0008
vn -0.0006 1.0000 -0.0014
vn -0.0003 1.0000 0.0009
vn -0.0009 1.0000 -0.0014
vn -0.0002 1.0000 0.0009
vn 0.0001 1.0000 -0.0012
vn -0.0000 1.0000 0.0009
vn 0.0002 1.0000 0.0009
vn 0.0006 1.0000 -0.0014
vn 0.0003 1.0000 0.0009
vn -0.0005 1.0000 -0.0009
vn 0.0005 1.0000 0.0008
vn -0.0015 1.0000 -0.0002
vn 0.0006 1.0000 0.0007
vn -0.0016 1.0000 0.0001
vn 0.0007 1.0000 0.0006
vn -0.0010 1.0000 -0.0007
vn 0.0008 1.0000 0.0005
vn -0.0008 1.0000 -0.0014
vn 0.0009 1.0000 0.0003
vn -0.0009 1.0000 -0.0012
vn 0.0009 1.0000 0.0002
vn -0.0011 1.0000 -0.0000
vn 0.0009 1.0000 -0.0000
vn -0.0009 1.0000 0.0012
vn 0.0009 1.0000 -0.0002
vn -0.0008 1.0000 0.0014
vn 0.0009 1.0000 -0.0003
vn -0.0011 1.0000 0.0006
vn 0.0008 1.0000 -0.0005
vn -0.0016 1.0000 -0.0000
vn 0.0007 1.0000 -0.0006
vn -0.0015 1.0000 0.0002
vn 0.0006 1.0000 -0.0007
vn -0.0005 1.0000 0.0009
vn 0.0005 1.0000 -0.0008
vn 0.0006 1.0000 0.0014
vn 0.0003 1.0000 -0.0009
vn 0.0009 1.0000 0.0014
vn 0.0002 1.0000 -0.0009
vn -0.0001 1.0000 0.0013
vn -0.0000 1.0000 -0.0009
vn -0.0002 1.0000 -0.0009
vn -0.0006 1.0000 0.0014
vn -0.0003 1.0000 -0.0009
vn 0.0005 1.0000 0.0009
vn -0.0005 1.0000 -0.0008
vn 0.0015 1.0000 0.0002
vn -0.0006 1.0000 -0.0007
vn 0.0016 1.0000 -0.0001
vn -0.0007 1.0000 -0.0006
vn 0.0010 1.0000 0.0007
vn -0.0008 1.0000 -0.0005
vn 0.0008 1.0000 0.0014
vn -0.0009 1.0000 -0.0003
vn 0.0009 1.0000 0.0012
vn -0.0009 1.0000 -0.0002
vn -0.0000 -1.0000 -0.0025
vn 0.0001 -1.0000 0.0004
vn 0.0002 -1.0000 0.0004
vn -0.0001 -1.0000 -0.0002
vn -0.0000 -1.0000 -0.0042
vn -0.0000 -1.0000 0.0004
vn -0.0001 -1.0000 0.0004
vn 0.0001 -1.0000 -0.0002
vn -0.0002 -1.0000 0.0004
vn 0.0022 -1.0000 -0.0013
vn -0.0002 -1.0000 0.0003
vn 0.0036 -1.0000 -0.0021
vn -0.0003 -1.0000 0.0003
vn -0.0004 -1.0000 0.0002
vn 0.0022 -1.0000 -0.0012
vn -0.0004 -1.0000 0.0001
vn 0.0003 -1.0000 -0.0000
vn -0.0004 -1.0000 -0.0000
vn 0.0022 -1.0000 0.0012
vn -0.0004 -1.0000 -0.0001
vn 0.0036 -1.0000 0.0021
vn -0.0004 -1.0000 -0.0002
vn -0.0003 -1.0000 -0.0003
vn 0.0022 -1.0000 0.0013
vn 0.0001 -1.0000 0.0002
vn -0.0002 -1.0000 -0.0004
vn -0.0000 -1.0000 0.0025
vn -0.0001 -1.0000 -0.0004
vn -0.0000 -1.0000 0.0042
vn -0.0000 -1.0000 -0.0004
vn 0.0001 -1.0000 -0.0004
vn -0.0001 -1.0000 0.0002
vn 0.0002 -1.0000 -0.0004
vn -0.0022 -1.0000 0.0013
vn 0.0002 -1.0000 -0.0003
vn -0.0036 -1.0000 0.0021
vn 0.0003 -1.0000 -0.0003
vn 0.0004 -1.0000 -0.0002
vn -0.0022 -1.0000 0.0012
vn 0.0004 -1.0000 -0.0001
vn -0.0003 -1.0000 -0.0000
vn 0.0004 -1.0000 -0.0000
vn -0.0022 -1.0000 -0.0012
vn 0.0004 -1.0000 0.0001
vn -0.0036 -1.0000 -0.0021
vn 0.0004 -1.0000 0.0002
vn 0.0003 -1.0000 0.0003
vn -0.0022 -1.0000 -0.0013
vn -0.0000 -0.7063 -0.7079
vn -0.0000 0.2954 -0.9554
vn 0.0506 0.3011 -0.9523
vn -0.0078 -0.6877 -0.7259
vn -0.3799 -0.6502 -0.6580
vn -0.4709 0.3364 -0.8156
vn -0.0988 0.3052 -0.9471
vn 0.0988 0.3052 -0.9471
vn 0.4709 0.3364 -0.8156
vn 0.3799 -0.6502 -0.6580
vn 0.0078 -0.6877 -0.7259
vn -0.0506 0.3011 -0.9523
vn 0.6129 -0.7064 -0.3539
vn 0.6130 -0.7064 -0.3539
vn 0.8274 0.2954 -0.4777
vn 0.8500 0.3011 -0.4323
vn 0.6247 -0.6877 -0.3697
vn 0.7709 0.3052 -0.5591
vn 0.8696 0.3052 -0.3880
vn 0.9417 0.3364 -0.0000
vn 0.7598 -0.6502 -0.0000
vn 0.6326 -0.6877 -0.3562
vn 0.6130 -0.7063 -0.3539
vn 0.7994 0.3011 -0.5199
vn 0.6130 -0.7064 0.3539
vn 0.8274 0.2954 0.4777
vn 0.7994 0.3011 0.5199
vn 0.6326 -0.6877 0.3562
vn 0.8696 0.3052 0.3880
vn 0.7709 0.3052 0.5591
vn 0.4709 0.3364 0.8156
vn 0.3799 -0.6502 0.6580
vn 0.6248 -0.6877 0.3697
vn 0.8500 0.3011 0.4323
vn -0.0000 -0.7064 0.7078
vn -0.0000 -0.7063 0.7079
vn -0.0000 0.2954 0.9554
vn -0.0506 0.3010 0.9523
vn 0.0078 -0.6877 0.7259
vn 0.0988 0.3052 0.9471
vn -0.0988 0.3052 0.9471
vn -0.4709 0.3364 0.8156
vn -0.3799 -0.6502 0.6580
vn -0.0078 -0.6877 0.7259
vn 0.0506 0.3010 0.9523
vn -0.6130 -0.7064 0.3539
vn -0.8274 0.2954 0.4777
vn -0.8500 0.3011 0.4323
vn -0.6247 -0.6877 0.3697
vn -0.7709 0.3052 0.5591
vn -0.8696 0.3052 0.3880
vn -0.9417 0.3364 -0.0000
vn -0.7598 -0.6502 -0.0000
vn -0.6326 -0.6877 0.3562
vn -0.7994 0.3011 0.5199
vn -0.6130 -0.7063 -0.3539
vn -0.6130 -0.7064 -0.3539
vn -0.8274 0.2954 -0.4777
vn -0.7994 0.3011 -0.5199
vn -0.6326 -0.6877 -0.3562
vn -0.8696 0.3052 -0.3880
vn -0.7709 0.3052 -0.5591
vn -0.6248 -0.6877 -0.3697
vn -0.8500 0.3011 -0.4323
vn -0.2101 0.9075 -0.3638
vn -0.1456 0.9001 -0.4106
vn -0.2827 0.9001 -0.3314
vn -0.3642 0.8814 -0.3008
vn -0.4225 0.8727 -0.2447
vn -0.4423 0.8817 -0.1646
vn -0.4284 0.9001 -0.0792
vn -0.4201 0.9075 -0.0000
vn -0.4284 0.9001 0.0792
vn -0.4426 0.8814 0.1650
vn -0.4232 0.8727 0.2435
vn -0.3637 0.8817 0.3007
vn -0.2827 0.9001 0.3314
vn -0.2100 0.9075 0.3638
vn -0.1456 0.9001 0.4106
vn -0.0784 0.8814 0.4658
vn -0.0007 0.8727 0.4882
vn 0.0786 0.8817 0.4653
vn 0.1456 0.9001 0.4106
vn 0.2101 0.9075 0.3638
vn 0.2827 0.9001 0.3314
vn 0.3642 0.8814 0.3008
vn 0.4225 0.8727 0.2447
vn 0.4423 0.8817 0.1646
vn 0.4284 0.9001 0.0792
vn 0.4201 0.9075 -0.0000
vn 0.4284 0.9001 -0.0792
vn 0.4426 0.8814 -0.1650
vn 0.4232 0.8727 -0.2435
vn 0.3637 0.8817 -0.3007
vn 0.2828 0.9001 -0.3314
vn 0.2100 0.9075 -0.3638
vn 0.1456 0.9001 -0.4106
vn 0.0784 0.8814 -0.4658
vn 0.0007 0.8727 -0.4882
vn -0.0786 0.8817 -0.4653
vn -0.6775 0.7258 0.1195
vn -0.6880 0.7257 -0.0000
vn -0.6465 0.7258 0.2353
vn -0.5958 0.7258 0.3440
vn -0.5270 0.7258 0.4422
vn -0.4422 0.7257 0.5270
vn -0.3440 0.7257 0.5958
vn -0.2353 0.7258 0.6465
vn -0.1195 0.7257 0.6775
vn -0.0000 0.7258 0.6879
vn 0.1195 0.7257 0.6775
vn 0.2353 0.7257 0.6465
vn 0.3440 0.7257 0.5958
vn 0.4422 0.7257 0.5270
vn 0.5270 0.7257 0.4422
vn 0.5958 0.7258 0.3440
vn 0.6465 0.7257 0.2353
vn 0.6775 0.7258 0.1195
vn 0.6879 0.7258 -0.0000
vn 0.6775 0.7257 -0.1195
vn 0.6465 0.7257 -0.2353
vn 0.5958 0.7257 -0.3440
vn 0.5270 0.7258 -0.4422
vn 0.4422 0.7258 -0.5270
vn 0.3440 0.7258 -0.5958
vn 0.2353 0.7257 -0.6465
vn 0.1195 0.7258 -0.6775
vn -0.0000 0.7257 -0.6880
vn -0.1195 0.7258 -0.6775
vn -0.2353 0.7258 -0.6465
vn -0.3440 0.7257 -0.5958
vn -0.4422 0.7258 -0.5270
vn -0.5270 0.7257 -0.4422
vn -0.5958 0.7258 -0.3440
vn -0.6465 0.7258 -0.2353
vn -0.6775 0.7257 -0.1195
vn -0.9826 0.0677 0.1732
vn -0.9977 0.0677 -0.0000
vn -0.9977 -0.0677 -0.0000
vn -0.9826 -0.0677 0.1732
vn -0.6775 -0.7258 0.1195
vn -0.6879 -0.7258 -0.0000
vn -0.9375 0.0677 0.3412
vn -0.9375 -0.0677 0.3412
vn -0.6465 -0.7257 0.2353
vn -0.8640 0.0677 0.4989
vn -0.8640 -0.0677 0.4988
vn -0.5958 -0.7258 0.3440
vn -0.7643 0.0677 0.6413
vn -0.7643 -0.0677 0.6413
vn -0.5270 -0.7258 0.4422
vn -0.6413 0.0677 0.7643
vn -0.6413 -0.0677 0.7643
vn -0.4422 -0.7257 0.5270
vn -0.4989 0.0677 0.8640
vn -0.4989 -0.0677 0.8640
vn -0.3440 -0.7257 0.5958
vn -0.3412 0.0677 0.9375
vn -0.3412 -0.0677 0.9375
vn -0.2353 -0.7258 0.6465
vn -0.1733 0.0677 0.9825
vn -0.1733 -0.0677 0.9825
vn -0.1195 -0.7258 0.6775
vn -0.0000 0.0677 0.9977
vn -0.0000 -0.0677 0.9977
vn -0.0000 -0.7258 0.6879
vn 0.1732 0.0677 0.9826
vn 0.1732 -0.0677 0.9826
vn 0.1195 -0.7257 0.6775
vn 0.3412 0.0677 0.9375
vn 0.3412 -0.0677 0.9375
vn 0.2353 -0.7258 0.6465
vn 0.4989 0.0677 0.8640
vn 0.4988 -0.0677 0.8641
vn 0.3440 -0.7257 0.5958
vn 0.6413 0.0677 0.7643
vn 0.6413 -0.0677 0.7643
vn 0.4422 -0.7257 0.5270
vn 0.7643 0.0677 0.6413
vn 0.7643 -0.0677 0.6413
vn 0.5270 -0.7257 0.4422
vn 0.8640 0.0677 0.4989
vn 0.8640 -0.0677 0.4989
vn 0.5958 -0.7257 0.3440
vn 0.9375 0.0677 0.3412
vn 0.9375 -0.0677 0.3412
vn 0.6465 -0.7258 0.2353
vn 0.9825 0.0677 0.1733
vn 0.9825 -0.0677 0.1733
vn 0.6775 -0.7257 0.1195
vn 0.9977 0.0677 -0.0000
vn 0.9977 -0.0677 -0.0000
vn 0.6879 -0.7258 -0.0000
vn 0.9826 0.0677 -0.1732
vn 0.9825 -0.0677 -0.1733
vn 0.6775 -0.7257 -0.1195
vn 0.9375 0.0677 -0.3412
vn 0.9375 -0.0677 -0.3412
vn 0.6465 -0.7257 -0.2353
vn 0.8640 0.0677 -0.4988
vn 0.8640 -0.0677 -0.4989
vn 0.5958 -0.7257 -0.3440
vn 0.7643 0.0677 -0.6413
vn 0.7643 -0.0677 -0.6413
vn 0.5270 -0.7258 -0.4422
vn 0.6413 0.0677 -0.7643
vn 0.6413 -0.0677 -0.7643
vn 0.4422 -0.7257 -0.5270
vn 0.4989 0.0677 -0.8640
vn 0.4989 -0.0677 -0.8640
vn 0.3440 -0.7257 -0.5958
vn 0.3412 0.0677 -0.9375
vn 0.3412 -0.0677 -0.9375
vn 0.2353 -0.7258 -0.6465
vn 0.1733 0.0677 -0.9825
vn 0.1733 -0.0677 -0.9825
vn 0.1195 -0.7257 -0.6775
vn -0.0000 0.0677 -0.9977
vn -0.0000 -0.0677 -0.9977
vn -0.0000 -0.7258 -0.6879
vn -0.1732 0.0677 -0.9826
vn -0.1732 -0.0677 -0.9826
vn -0.1195 -0.7257 -0.6775
vn -0.3412 0.0677 -0.9375
vn -0.3412 -0.0677 -0.9375
vn -0.2353 -0.7257 -0.6465
vn -0.4988 0.0677 -0.8640
vn -0.4988 -0.0677 -0.8640
vn -0.3440 -0.7258 -0.5958
vn -0.6413 0.0677 -0.7643
vn -0.6413 -0.0677 -0.7643
vn -0.4422 -0.7257 -0.5270
vn -0.7643 0.0677 -0.6413
vn -0.7643 -0.0677 -0.6413
vn -0.5270 -0.7258 -0.4422
vn -0.8640 0.0677 -0.4989
vn -0.8640 -0.0677 -0.4989
vn -0.5958 -0.7258 -0.3440
vn -0.9375 0.0677 -0.3412
vn -0.9375 -0.0677 -0.3412
vn -0.6465 -0.7257 -0.2353
vn -0.9825 0.0677 -0.1733
vn -0.9825 -0.0677 -0.1733
vn -0.6775 -0.7257 -0.1195
vn -1.0000 -0.0000 -0.0000
vn -0.9848 -0.0000 0.1736
vn -0.9397 -0.0000 0.3420
vn -0.8660 -0.0000 0.5000
vn -0.7660 -0.0000 0.6428
vn -0.6428 -0.0000 0.7660
vn -0.5000 -0.0000 0.8660
vn -0.3420 -0.0000 0.9397
vn -0.1736 -0.0000 0.9848
vn -0.0000 -0.0000 1.0000
vn 0.1736 -0.0000 0.9848
vn 0.3420 -0.0000 0.9397
vn 0.5000 -0.0000 0.8660
vn 0.6428 -0.0000 0.7660
vn 0.7660 -0.0000 0.6428
vn 0.8660 -0.0000 0.5000
vn 0.9397 -0.0000 0.3420
vn 0.9848 -0.0000 0.1736
vn 1.0000 -0.0000 -0.0000
vn 0.9848 -0.0000 -0.1736
vn 0.9397 -0.0000 -0.3420
vn 0.8660 -0.0000 -0.5000
vn 0.7660 -0.0000 -0.6428
vn 0.6428 -0.0000 -0.7660
vn 0.5000 -0.0000 -0.8660
vn 0.3420 -0.0000 -0.9397
vn 0.1736 -0.0000 -0.9848
vn -0.0000 -0.0000 -1.0000
vn -0.1736 -0.0000 -0.9848
vn -0.3420 -0.0000 -0.9397
vn -0.5000 -0.0000 -0.8660
vn -0.6428 -0.0000 -0.7660
vn -0.7660 -0.0000 -0.6428
vn -0.8660 -0.0000 -0.5000
vn -0.9397 -0.0000 -0.3420
vn -0.9848 -0.0000 -0.1736
vn -0.8551 -0.4960 0.1508
vn -0.8683 -0.4960 -0.0000
vn -0.8551 -0.4960 -0.1508
vn -0.8160 -0.4960 -0.2970
vn -0.7520 -0.4960 -0.4342
vn -0.6652 -0.4960 -0.5581
vn -0.5581 -0.4960 -0.6652
vn -0.4342 -0.4960 -0.7520
vn -0.2970 -0.4960 -0.8160
vn -0.1508 -0.4960 -0.8551
vn -0.0000 -0.4960 -0.8683
vn 0.1508 -0.4960 -0.8551
vn 0.2970 -0.4960 -0.8160
vn 0.4342 -0.4960 -0.7520
vn 0.5581 -0.4960 -0.6652
vn 0.6652 -0.4960 -0.5581
vn 0.7520 -0.4960 -0.4342
vn 0.8160 -0.4960 -0.2970
vn 0.8551 -0.4960 -0.1508
vn 0.8683 -0.4960 -0.0000
vn 0.8551 -0.4960 0.1508
vn 0.8160 -0.4960 0.2970
vn 0.7520 -0.4960 0.4342
vn 0.6652 -0.4960 0.5581
vn 0.5581 -0.4960 0.6652
vn 0.4342 -0.4960 0.7520
vn 0.2970 -0.4960 0.8160
vn 0.1508 -0.4960 0.8551
vn -0.0000 -0.4960 0.8683
vn -0.1508 -0.4960 0.8551
vn -0.2970 -0.4960 0.8160
vn -0.4342 -0.4960 0.7520
vn -0.5581 -0.4960 0.6652
vn -0.6652 -0.4960 0.5581
vn -0.7520 -0.4960 0.4342
vn -0.8160 -0.4960 0.2970
vn -0.8683 0.4960 -0.0000
vn -0.8551 0.4960 0.1508
vn -0.8160 0.4960 0.2970
vn -0.7520 0.4960 0.4342
vn -0.6652 0.4960 0.5581
vn -0.5581 0.4960 0.6652
vn -0.4342 0.4960 0.7520
vn -0.2970 0.4960 0.8160
vn -0.1508 0.4960 0.8551
vn -0.0000 0.4960 0.8683
vn 0.1508 0.4960 0.8551
vn 0.2970 0.4960 0.8160
vn 0.4342 0.4960 0.7520
vn 0.5581 0.4960 0.6652
vn 0.6652 0.4960 0.5581
vn 0.7520 0.4960 0.4342
vn 0.8160 0.4960 0.2970
vn 0.8551 0.4960 0.1508
vn 0.8683 0.4960 -0.0000
vn 0.8551 0.4960 -0.1508
vn 0.8160 0.4960 -0.2970
vn 0.7520 0.4960 -0.4342
vn 0.6652 0.4960 -0.5581
vn 0.5581 0.4960 -0.6652
vn 0.4342 0.4960 -0.7520
vn 0.2970 0.4960 -0.8160
vn 0.1508 0.4960 -0.8551
vn -0.0000 0.4960 -0.8683
vn -0.1508 0.4960 -0.8551
vn -0.2970 0.4960 -0.8160
vn -0.4342 0.4960 -0.7520
vn -0.5581 0.4960 -0.6652
vn -0.6652 0.4960 -0.5581
vn -0.7520 0.4960 -0.4342
vn -0.8160 0.4960 -0.2970
vn -0.8551 0.4960 -0.1508
vn -0.7376 -0.6626 0.1301
vn -0.7490 -0.6626 -0.0000
vn -0.7376 -0.6626 -0.1301
vn -0.7038 -0.6626 -0.2562
vn -0.6486 -0.6626 -0.3745
vn -0.5737 -0.6626 -0.4814
vn -0.4814 -0.6626 -0.5737
vn -0.3745 -0.6626 -0.6486
vn -0.2562 -0.6626 -0.7038
vn -0.1301 -0.6626 -0.7376
vn -0.0000 -0.6626 -0.7490
vn 0.1301 -0.6626 -0.7376
vn 0.2562 -0.6626 -0.7038
vn 0.3745 -0.6626 -0.6486
vn 0.4814 -0.6626 -0.5737
vn 0.5737 -0.6626 -0.4814
vn 0.6486 -0.6626 -0.3745
vn 0.7038 -0.6626 -0.2562
vn 0.7376 -0.6626 -0.1301
vn 0.7490 -0.6626 -0.0000
vn 0.7376 -0.6626 0.1301
vn 0.7038 -0.6626 0.2562
vn 0.6486 -0.6626 0.3745
vn 0.5737 -0.6626 0.4814
vn 0.4814 -0.6626 0.5737
vn 0.3745 -0.6626 0.6486
vn 0.2562 -0.6626 0.7038
vn 0.1301 -0.6626 0.7376
vn -0.0000 -0.6626 0.7490
vn -0.1301 -0.6626 0.7376
vn -0.2562 -0.6626 0.7038
vn -0.3745 -0.6626 0.6486
vn -0.4814 -0.6626 0.5737
vn -0.5737 -0.6626 0.4814
vn -0.6486 -0.6626 0.3745
vn -0.7038 -0.6626 0.2562
vn -0.7490 0.6626 -0.0000
vn -0.7376 0.6626 0.1301
vn -0.7038 0.6626 0.2562
vn -0.6486 0.6626 0.3745
vn -0.5737 0.6626 0.4814
vn -0.4814 0.6626 0.5737
vn -0.3745 0.6626 0.6486
vn -0.2562 0.6626 0.7038
vn -0.1301 0.6626 0.7376
vn -0.0000 0.6626 0.7490
vn 0.1301 0.6626 0.7376
vn 0.2562 0.6626 0.7038
vn 0.3745 0.6626 0.6486
vn 0.4814 0.6626 0.5737
vn 0.5737 0.6626 0.4814
vn 0.6486 0.6626 0.3745
vn 0.7038 0.6626 0.2562
vn 0.7376 0.6626 0.1301
vn 0.7490 0.6626 -0.0000
vn 0.7376 0.6626 -0.1301
vn 0.7038 0.6626 -0.2562
vn 0.6486 0.6626 -0.3745
vn 0.5737 0.6626 -0.4814
vn 0.4814 0.6626 -0.5737
vn 0.3745 0.6626 -0.6486
vn 0.2562 0.6626 -0.7038
vn 0.1301 0.6626 -0.7376
vn -0.0000 0.6626 -0.7490
vn -0.1301 0.6626 -0.7376
vn -0.2562 0.6626 -0.7038
vn -0.3745 0.6626 -0.6486
vn -0.4814 0.6626 -0.5737
vn -0.5737 0.6626 -0.4814
vn -0.6486 0.6626 -0.3745
vn -0.7038 0.6626 -0.2562
vn -0.7376 0.6626 -0.1301
vt 0.000000 0.061712
vt 0.000000 0.938006
vt -0.037500 0.935132
vt -0.037500 0.064573
vt 0.075000 0.072744
vt 0.083333 0.072744
vt 0.083333 0.927256
vt 0.075000 0.927256
vt -0.075000 0.927256
vt -0.083333 0.927256
vt -0.083333 0.072744
vt -0.075000 0.072744
vt 0.037500 0.064573
vt 0.037500 0.935132
vt 0.000000 0.061712
vt -0.037500 0.064573
vt 0.075000 0.072744
vt 0.083333 0.072744
vt 0.083333 0.927256
vt 0.075000 0.927256
vt -0.075000 0.927256
vt -0.075000 0.072744
vt 0.037500 0.935132
vt -0.083333 0.927256
vt -0.083333 0.072744
vt -0.037500 0.935132
vt 0.073375 0.916424
vt 0.083333 0.919996
vt 0.083333 0.500000
vt 0.065278 0.500000
vt -0.059446 0.916424
vt 0.018056 0.500000
vt 0.000000 0.500000
vt -0.069999 0.919996
vt -0.017530 0.886782
vt 0.050694 0.500000
vt 0.020098 0.879413
vt 0.083333 0.500000
vt 0.055269 0.886782
vt 0.115972 0.500000
vt 0.087304 0.916424
vt 0.148611 0.500000
vt 0.096667 0.919996
vt 0.166667 0.500000
vt -0.045516 0.916424
vt 0.101389 0.500000
vt 0.083333 0.500000
vt -0.056665 0.919996
vt 0.001340 0.886782
vt 0.134028 0.500000
vt 0.040196 0.879413
vt 0.166667 0.500000
vt 0.074139 0.886782
vt 0.199306 0.500000
vt 0.101234 0.916424
vt 0.231944 0.500000
vt 0.110001 0.919996
vt 0.250000 0.500000
vt -0.031587 0.916424
vt 0.184722 0.500000
vt -0.043331 0.919996
vt 0.020210 0.886782
vt 0.217361 0.500000
vt 0.060294 0.879413
vt 0.093008 0.886782
vt 0.282639 0.500000
vt 0.115163 0.916424
vt 0.315278 0.500000
vt 0.123335 0.919996
vt 0.333333 0.500000
vt -0.017658 0.916424
vt 0.268056 0.500000
vt -0.029997 0.919996
vt 0.039080 0.886782
vt 0.300694 0.500000
vt 0.080391 0.879413
vt 0.333333 0.500000
vt 0.111878 0.886782
vt 0.365972 0.500000
vt 0.129092 0.916424
vt 0.398611 0.500000
vt 0.136669 0.919996
vt 0.416667 0.500000
vt -0.003728 0.916424
vt 0.351389 0.500000
vt 0.333333 0.500000
vt -0.016663 0.919996
vt 0.057949 0.886782
vt 0.384028 0.500000
vt 0.100489 0.879413
vt 0.416667 0.500000
vt 0.130748 0.886782
vt 0.449306 0.500000
vt 0.143021 0.916424
vt 0.481944 0.500000
vt 0.150003 0.919996
vt 0.500000 0.500000
vt 0.010201 0.916424
vt 0.434722 0.500000
vt -0.003329 0.919996
vt 0.076819 0.886782
vt 0.467361 0.500000
vt 0.120587 0.879413
vt 0.500000 0.500000
vt 0.000000 0.879413
vt 0.036399 0.886782
vt 0.032639 0.500000
vt -0.000000 0.500000
vt 0.083333 0.078555
vt 0.057106 0.079758
vt 0.096267 0.079758
vt 0.070241 0.078555
vt 0.120330 0.105218
vt 0.146610 0.120340
vt 0.177931 0.105218
vt 0.210480 0.079758
vt 0.236907 0.078555
vt 0.249641 0.079758
vt 0.223815 0.078555
vt 0.269460 0.105218
vt 0.293220 0.120340
vt 0.327061 0.105218
vt 0.363854 0.079758
vt 0.390482 0.078555
vt 0.403015 0.079758
vt 0.377389 0.078555
vt 0.418590 0.105218
vt 0.439830 0.120340
vt 0.476192 0.105218
vt 0.517227 0.079758
vt 0.544056 0.078555
vt 0.556388 0.079758
vt 0.530963 0.078555
vt 0.567720 0.105218
vt 0.586440 0.120340
vt 0.625322 0.105218
vt 0.670601 0.079758
vt 0.697630 0.078555
vt 0.709762 0.079758
vt 0.684537 0.078555
vt 0.716851 0.105218
vt 0.733050 0.120340
vt 0.774452 0.105218
vt 0.823975 0.079758
vt 0.851204 0.078555
vt 0.863136 0.079758
vt 0.838111 0.078555
vt 0.865981 0.105218
vt 0.879660 0.120340
vt 0.028801 0.105218
vt -0.000000 0.120340
vt 0.777778 0.123617
vt 0.777778 0.876383
vt 0.750000 0.876383
vt 0.750000 0.123617
vt 0.805556 0.123617
vt 0.805556 0.876383
vt 0.833333 0.123617
vt 0.833333 0.876383
vt 0.861111 0.123617
vt 0.861111 0.876383
vt 0.888889 0.123617
vt 0.888889 0.876383
vt 0.916667 0.123617
vt 0.916667 0.876383
vt 0.944444 0.123617
vt 0.944444 0.876383
vt 0.972222 0.123617
vt 0.972222 0.876383
vt 1.000000 0.123617
vt 1.000000 0.876383
vt 0.027205 0.123617
vt 0.023716 0.876383
vt 0.004062 0.876383
vt 0.000573 0.123617
vt 0.054983 0.123617
vt 0.051494 0.876383
vt 0.031840 0.876383
vt 0.028351 0.123617
vt 0.082760 0.123617
vt 0.079271 0.876383
vt 0.059618 0.876383
vt 0.056128 0.123617
vt 0.110538 0.123617
vt 0.107049 0.876383
vt 0.087395 0.876383
vt 0.083906 0.123617
vt 0.138316 0.123617
vt 0.134827 0.876383
vt 0.115173 0.876383
vt 0.111684 0.123617
vt 0.166094 0.123617
vt 0.162605 0.876383
vt 0.142951 0.876383
vt 0.139462 0.123617
vt 0.193871 0.123617
vt 0.190382 0.876383
vt 0.170729 0.876383
vt 0.167240 0.123617
vt 0.221649 0.123617
vt 0.218160 0.876383
vt 0.198506 0.876383
vt 0.195017 0.123617
vt 0.249427 0.123617
vt 0.245938 0.876383
vt 0.226284 0.876383
vt 0.222795 0.123617
vt 0.277205 0.123617
vt 0.273716 0.876383
vt 0.254062 0.876383
vt 0.250573 0.123617
vt 0.304983 0.123617
vt 0.301493 0.876383
vt 0.281840 0.876383
vt 0.278351 0.123617
vt 0.332760 0.123617
vt 0.329271 0.876383
vt 0.309617 0.876383
vt 0.306128 0.123617
vt 0.360538 0.123617
vt 0.357049 0.876383
vt 0.337395 0.876383
vt 0.333906 0.123617
vt 0.388316 0.123617
vt 0.384827 0.876383
vt 0.365173 0.876383
vt 0.361684 0.123617
vt 0.416094 0.123617
vt 0.412605 0.876383
vt 0.392951 0.876383
vt 0.389462 0.123617
vt 0.443871 0.123617
vt 0.440382 0.876383
vt 0.420729 0.876383
vt 0.417240 0.123617
vt 0.471649 0.123617
vt 0.468160 0.876383
vt 0.448506 0.876383
vt 0.445017 0.123617
vt 0.499427 0.123617
vt 0.495938 0.876383
vt 0.476284 0.876383
vt 0.472795 0.123617
vt 0.527205 0.123617
vt 0.523716 0.876383
vt 0.504062 0.876383
vt 0.500573 0.123617
vt 0.554982 0.123617
vt 0.551494 0.876383
vt 0.531840 0.876383
vt 0.528351 0.123617
vt 0.582760 0.123617
vt 0.579271 0.876383
vt 0.559617 0.876383
vt 0.556128 0.123617
vt 0.610538 0.123617
vt 0.607049 0.876383
vt 0.587395 0.876383
vt 0.583906 0.123617
vt 0.638316 0.123617
vt 0.634827 0.876383
vt 0.615173 0.876383
vt 0.611684 0.123617
vt 0.666094 0.123617
vt 0.662605 0.876383
vt 0.642951 0.876383
vt 0.639462 0.123617
vt 0.693871 0.123617
vt 0.690382 0.876383
vt 0.670729 0.876383
vt 0.667239 0.123617
vt 0.721649 0.123617
vt 0.718160 0.876383
vt 0.698506 0.876383
vt 0.695017 0.123617
vt 0.722222 0.876383
vt 0.722222 0.123617
vt 0.135280 0.064498
vt 0.952438 0.938841
vt 0.936569 0.939904
vt 0.139899 0.062311
vt 0.113083 0.077514
vt 0.941275 0.926867
vt 0.079023 0.079023
vt 0.920675 0.920675
vt 0.040768 0.077514
vt 0.898379 0.926867
vt -0.009247 0.064498
vt 0.882096 0.938841
vt -0.021022 0.062311
vt 0.856571 0.939904
vt 0.127495 0.064498
vt 0.839112 0.938841
vt 0.866587 0.939904
vt 0.135260 0.062311
vt 0.101341 0.077514
vt 0.800878 0.926867
vt 0.065852 0.079023
vt 0.767229 0.920675
vt 0.027849 0.077514
vt 0.743901 0.926867
vt -0.019997 0.064498
vt 0.725623 0.938841
vt -0.031407 0.062311
vt 0.699920 0.939904
vt 0.116745 0.064498
vt 0.682639 0.938841
vt 0.709936 0.939904
vt 0.124874 0.062311
vt 0.051629 0.077514
vt 0.206447 0.926867
vt 0.011802 0.079023
vt 0.137502 0.920675
vt -0.027650 0.077514
vt 0.080282 0.926867
vt -0.067436 0.064498
vt 0.035100 0.938841
vt -0.077588 0.062311
vt 0.003335 0.939904
vt 0.069544 0.064498
vt -0.004422 0.938841
vt 0.013351 0.939904
vt 0.078694 0.062311
vt 0.033618 0.077514
vt -0.008922 0.926867
vt 0.000000 0.079023
vt 0.000001 0.920675
vt -0.032440 0.077514
vt 0.023004 0.926867
vt -0.065654 0.064498
vt 0.061042 0.938841
vt -0.070346 0.062311
vt 0.112573 0.939904
vt 0.082526 0.064498
vt 0.184548 0.938841
vt 0.122589 0.939904
vt 0.085936 0.062311
vt 0.055339 0.077514
vt 0.250807 0.926867
vt 0.027709 0.079023
vt 0.322836 0.920675
vt -0.000626 0.077514
vt 0.403414 0.926867
vt -0.036131 0.064498
vt 0.490776 0.938841
vt -0.039743 0.062311
vt 0.574182 0.939904
vt 0.115394 0.064498
vt 0.662978 0.938841
vt 0.584198 0.939904
vt 0.116538 0.062311
vt 0.095071 0.077514
vt 0.725906 0.926867
vt 0.067221 0.079023
vt 0.783174 0.920675
vt 0.035977 0.077514
vt 0.841101 0.926867
vt -0.008391 0.064498
vt 0.894568 0.938841
vt -0.016382 0.062311
vt 0.926553 0.939904
vt -0.037500 0.000000
vt 0.000000 0.000000
vt 0.000000 1.000000
vt -0.037500 1.000000
vt 0.075000 0.000000
vt 0.083333 0.000000
vt 0.083333 1.000000
vt 0.075000 1.000000
vt -0.075000 1.000000
vt -0.083333 1.000000
vt -0.083333 0.000000
vt -0.075000 0.000000
vt 0.037500 0.000000
vt 0.037500 1.000000
vt 0.083333 0.000000
vt 0.055556 0.000000
vt 0.111111 0.000000
vt 0.138889 0.000000
vt 0.166667 0.000000
vt 0.194444 0.000000
vt 0.222222 0.000000
vt 0.250000 0.000000
vt 0.277778 0.000000
vt 0.305555 0.000000
vt 0.333333 0.000000
vt 0.361111 0.000000
vt 0.388889 0.000000
vt 0.416667 0.000000
vt 0.444444 0.000000
vt 0.472222 0.000000
vt 0.500000 0.000000
vt 0.527778 0.000000
vt 0.555555 0.000000
vt 0.583333 0.000000
vt 0.611111 0.000000
vt 0.638889 0.000000
vt 0.666667 0.000000
vt 0.694444 0.000000
vt 0.722222 0.000000
vt 0.750000 0.000000
vt 0.777778 0.000000
vt 0.805556 0.000000
vt 0.833333 0.000000
vt 0.861111 0.000000
vt 0.888889 0.000000
vt 0.916667 0.000000
vt 0.944444 0.000000
vt 0.972222 0.000000
vt 1.000000 0.000000
vt 0.027778 0.000000
vt -0.000000 0.000000
vt 0.777778 1.000000
vt 0.750000 1.000000
vt 0.805556 1.000000
vt 0.833333 1.000000
vt 0.861111 1.000000
vt 0.888889 1.000000
vt 0.916667 1.000000
vt 0.944444 1.000000
vt 0.972222 1.000000
vt 1.000000 1.000000
vt 0.023143 1.000000
vt 0.004635 1.000000
vt 0.050921 1.000000
vt 0.032413 1.000000
vt 0.078698 1.000000
vt 0.060190 1.000000
vt 0.106476 1.000000
vt 0.087968 1.000000
vt 0.134254 1.000000
vt 0.115746 1.000000
vt 0.162032 1.000000
vt 0.143524 1.000000
vt 0.189809 1.000000
vt 0.171302 1.000000
vt 0.217587 1.000000
vt 0.199079 1.000000
vt 0.245365 1.000000
vt 0.226857 1.000000
vt 0.273143 1.000000
vt 0.254635 1.000000
vt 0.300921 1.000000
vt 0.282413 1.000000
vt 0.328698 1.000000
vt 0.310190 1.000000
vt 0.356476 1.000000
vt 0.337968 1.000000
vt 0.384254 1.000000
vt 0.365746 1.000000
vt 0.412032 1.000000
vt 0.393524 1.000000
vt 0.439809 1.000000
vt 0.421302 1.000000
vt 0.467587 1.000000
vt 0.449079 1.000000
vt 0.495365 1.000000
vt 0.476857 1.000000
vt 0.523143 1.000000
vt 0.504635 1.000000
vt 0.550921 1.000000
vt 0.532413 1.000000
vt 0.578698 1.000000
vt 0.560190 1.000000
vt 0.606476 1.000000
vt 0.587968 1.000000
vt 0.634254 1.000000
vt 0.615746 1.000000
vt 0.662032 1.000000
vt 0.643524 1.000000
vt 0.689809 1.000000
vt 0.671301 1.000000
vt 0.717587 1.000000
vt 0.699079 1.000000
vt 0.722222 1.000000
vt 1.012586 1.000000
vt 1.009596 1.000000
vt 0.991124 1.000000
vt 0.957728 1.000000
vt 0.910425 1.000000
vt 0.850651 1.000000
vt 0.780223 1.000000
vt 0.701280 1.000000
vt 0.616222 1.000000
vt 0.527632 1.000000
vt 0.438203 1.000000
vt 0.350652 1.000000
vt 0.267638 1.000000
vt 0.191684 1.000000
vt 0.125099 1.000000
vt 0.069904 1.000000
vt 0.027778 1.000000
vt 0.000001 1.000000
vt -0.012585 1.000000
vt -0.009596 1.000000
vt 0.008877 1.000000
vt 0.042272 1.000000
vt 0.089575 1.000000
vt 0.149349 1.000000
vt 0.219777 1.000000
s 1
usemtl bolt49
f 68/1/1 74/2/2 77/3/3 47/4/1
f 39/5/4 41/6/5 66/7/6 54/8/7
f 60/9/8 62/10/9 51/11/10 45/12/11
f 71/13/1 39/5/4 54/8/7 56/14/12
f 68/1/1 71/13/1 56/14/12 74/2/2
f 60/9/8 45/12/11 47/4/1 77/3/3
f 83/15/13 87/2/14 89/3/15 81/16/13
f 93/17/16 51/18/10 62/19/9 95/20/17
f 99/21/18 101/10/19 105/11/20 107/22/21
f 111/13/13 93/17/16 95/20/17 113/23/22
f 83/15/13 111/13/13 113/23/22 87/2/14
f 99/21/18 107/22/21 81/16/13 89/3/15
f 119/1/23 123/2/24 125/3/25 117/4/23
f 129/5/26 105/18/20 101/19/19 131/8/27
f 135/9/28 137/10/29 141/11/30 143/12/31
f 147/13/23 129/5/26 131/8/27 149/23/32
f 119/1/23 147/13/23 149/23/32 123/2/24
f 135/9/28 143/12/31 117/4/23 125/3/25
f 155/1/33 159/2/34 161/3/35 153/4/33
f 165/17/36 141/18/30 137/19/29 167/20/37
f 171/9/38 173/24/39 177/25/40 179/12/41
f 183/13/33 165/17/36 167/20/37 185/14/42
f 155/1/33 183/13/33 185/14/42 159/2/34
f 171/9/38 179/12/41 153/4/33 161/3/35
f 191/1/43 195/2/44 197/3/45 189/16/43
f 201/5/46 177/6/40 173/7/39 203/8/47
f 207/21/48 209/10/49 213/11/50 215/22/51
f 219/13/43 201/5/46 203/8/47 221/23/52
f 191/1/43 219/13/43 221/23/52 195/2/44
f 207/21/48 215/22/51 189/16/43 197/3/45
f 227/1/53 231/2/54 233/26/55 225/4/53
f 237/5/56 213/18/50 209/19/49 239/8/57
f 243/9/58 66/24/6 41/25/5 245/12/59
f 249/13/53 237/5/56 239/8/57 251/23/60
f 227/1/53 249/13/53 251/23/60 231/2/54
f 243/9/58 245/12/59 225/4/53 233/26/55
f 53/27/61 65/28/62 2/29/63 1/30/64
f 242/31/65 3/32/66 2/33/63 65/34/62
f 234/35/67 4/36/68 3/32/66 242/31/65
f 230/37/69 5/38/70 4/36/68 234/35/67
f 230/37/69 252/39/71 6/40/72 5/38/70
f 252/39/71 240/41/73 7/42/74 6/40/72
f 240/41/73 210/43/75 8/44/76 7/42/74
f 206/45/77 9/46/78 8/47/76 210/48/75
f 198/49/79 10/50/80 9/46/78 206/45/77
f 194/51/81 11/52/82 10/50/80 198/49/79
f 194/51/81 222/53/83 12/54/84 11/52/82
f 222/53/83 204/55/85 13/56/86 12/54/84
f 204/55/85 174/57/87 14/58/88 13/56/86
f 170/59/89 15/60/90 14/44/88 174/61/87
f 162/62/91 16/63/92 15/60/90 170/59/89
f 158/64/93 17/58/94 16/63/92 162/62/91
f 158/64/93 186/65/95 18/66/96 17/58/94
f 186/65/95 168/67/97 19/68/98 18/66/96
f 168/67/97 138/69/99 20/70/100 19/68/98
f 134/71/101 21/72/102 20/58/100 138/73/99
f 126/74/103 22/75/104 21/72/102 134/71/101
f 122/76/105 23/77/106 22/75/104 126/74/103
f 122/76/105 150/78/107 24/79/108 23/77/106
f 150/78/107 132/80/109 25/81/110 24/79/108
f 132/80/109 102/82/111 26/83/112 25/81/110
f 98/84/113 27/85/114 26/86/112 102/87/111
f 90/88/115 28/89/116 27/85/114 98/84/113
f 86/90/117 29/91/118 28/89/116 90/88/115
f 86/90/117 114/92/119 30/93/120 29/91/118
f 114/92/119 96/94/121 31/95/122 30/93/120
f 96/94/121 63/96/123 32/97/124 31/95/122
f 59/98/125 33/99/126 32/83/124 63/100/123
f 78/101/127 34/102/128 33/99/126 59/98/125
f 75/103/129 35/104/130 34/102/128 78/101/127
f 75/105/129 57/106/131 36/107/132 35/108/130
f 57/106/131 53/27/61 1/30/64 36/107/132
f 1/30/64 2/29/63 291/109/133 288/110/134
f 3/32/66 294/111/135 291/112/133 2/33/63
f 4/36/68 297/113/136 294/111/135 3/32/66
f 5/38/70 300/114/137 297/113/136 4/36/68
f 5/38/70 6/40/72 303/115/138 300/114/137
f 6/40/72 7/42/74 306/116/139 303/115/138
f 7/42/74 8/44/76 309/117/140 306/116/139
f 9/46/78 312/118/141 309/119/140 8/47/76
f 10/50/80 315/120/142 312/118/141 9/46/78
f 11/52/82 318/121/143 315/120/142 10/50/80
f 11/52/82 12/54/84 321/122/144 318/121/143
f 12/54/84 13/56/86 324/123/145 321/122/144
f 13/56/86 14/58/88 327/124/146 324/123/145
f 15/60/90 330/125/147 327/126/146 14/44/88
f 16/63/92 333/127/148 330/125/147 15/60/90
f 17/58/94 336/128/149 333/127/148 16/63/92
f 17/58/94 18/66/96 339/129/150 336/128/149
f 18/66/96 19/68/98 342/130/151 339/129/150
f 19/68/98 20/70/100 345/131/152 342/130/151
f 21/72/102 348/132/153 345/133/152 20/58/100
f 22/75/104 351/134/154 348/132/153 21/72/102
f 23/77/106 354/135/155 351/134/154 22/75/104
f 23/77/106 24/79/108 357/136/156 354/135/155
f 24/79/108 25/81/110 360/137/157 357/136/156
f 25/81/110 26/83/112 254/138/158 360/137/157
f 27/85/114 258/139/159 254/140/158 26/86/112
f 28/89/116 261/141/160 258/139/159 27/85/114
f 29/91/118 264/142/161 261/141/160 28/89/116
f 29/91/118 30/93/120 267/143/162 264/142/161
f 30/93/120 31/95/122 270/144/163 267/143/162
f 31/95/122 32/97/124 273/145/164 270/144/163
f 33/99/126 276/146/165 273/147/164 32/83/124
f 34/102/128 279/148/166 276/146/165 33/99/126
f 35/104/130 282/149/167 279/148/166 34/102/128
f 35/108/130 36/107/132 285/150/168 282/151/167
f 36/107/132 1/30/64 288/110/134 285/150/168
f 257/152/169 366/153/170 362/154/171 255/155/172
f 260/156/173 369/157/174 366/153/170 257/152/169
f 263/158/175 372/159/176 369/157/174 260/156/173
f 266/160/177 375/161/178 372/159/176 263/158/175
f 269/162/179 378/163/180 375/161/178 266/160/177
f 272/164/181 381/165/182 378/163/180 269/162/179
f 275/166/183 384/167/184 381/165/182 272/164/181
f 278/168/185 387/169/186 384/167/184 275/166/183
f 281/170/187 390/171/188 387/169/186 278/168/185
f 284/172/173 393/173/189 390/174/188 281/175/187
f 287/176/190 396/177/191 393/178/189 284/179/173
f 290/180/192 399/181/193 396/182/191 287/183/190
f 293/184/194 402/185/195 399/186/193 290/187/192
f 296/188/196 405/189/197 402/190/195 293/191/194
f 299/192/198 408/193/199 405/194/197 296/195/196
f 302/196/200 411/197/201 408/198/199 299/199/198
f 305/200/202 414/201/203 411/202/201 302/203/200
f 308/204/204 417/205/205 414/206/203 305/207/202
f 311/208/206 420/209/207 417/210/205 308/211/204
f 314/212/208 423/213/209 420/214/207 311/215/206
f 317/216/210 426/217/211 423/218/209 314/219/208
f 320/220/212 429/221/213 426/222/211 317/223/210
f 323/224/214 432/225/215 429/226/213 320/227/212
f 326/228/216 435/229/217 432/230/215 323/231/214
f 329/232/218 438/233/219 435/234/217 326/235/216
f 332/236/220 441/237/221 438/238/219 329/239/218
f 335/240/222 444/241/223 441/242/221 332/243/220
f 338/244/208 447/245/224 444/246/223 335/247/222
f 341/248/225 450/249/226 447/250/224 338/251/208
f 344/252/227 453/253/228 450/254/226 341/255/225
f 347/256/229 456/257/230 453/258/228 344/259/227
f 350/260/231 459/261/232 456/262/230 347/263/229
f 353/264/233 462/265/234 459/266/232 350/267/231
f 356/268/235 465/269/236 462/270/234 353/271/233
f 359/272/237 468/273/238 465/274/236 356/275/235
f 255/155/172 362/154/171 468/276/238 359/277/237
f 38/278/239 503/279/240 506/280/241 42/281/242
f 72/282/243 500/283/240 503/279/240 38/278/239
f 69/284/243 497/285/244 500/283/240 72/282/243
f 69/284/243 48/286/243 494/287/245 497/285/244
f 48/286/243 44/288/239 491/289/245 494/287/245
f 44/288/239 50/290/246 488/291/247 491/289/245
f 92/292/248 485/293/249 488/294/247 50/295/246
f 110/296/250 482/297/251 485/293/249 92/292/248
f 84/298/250 479/299/252 482/297/251 110/296/250
f 84/298/250 80/300/250 476/301/252 479/299/252
f 80/300/250 108/302/253 470/303/254 476/301/252
f 108/302/253 104/304/255 474/305/256 470/303/254
f 128/306/257 575/307/258 474/308/256 104/309/255
f 146/310/259 572/311/258 575/307/258 128/306/257
f 120/312/259 569/313/260 572/311/258 146/310/259
f 120/312/259 116/314/259 566/315/261 569/313/260
f 116/314/259 144/316/262 563/317/261 566/315/261
f 144/316/262 140/318/263 560/319/264 563/317/261
f 164/320/265 557/321/266 560/322/264 140/323/263
f 182/324/267 554/325/266 557/321/266 164/320/265
f 156/326/267 551/327/268 554/325/266 182/324/267
f 156/326/267 152/328/267 548/329/269 551/327/268
f 152/328/267 180/330/265 545/331/269 548/329/269
f 180/330/265 176/332/270 542/333/271 545/331/269
f 200/334/272 539/335/273 542/336/271 176/337/270
f 218/338/274 536/339/275 539/335/273 200/334/272
f 192/340/274 533/341/276 536/339/275 218/338/274
f 192/340/274 188/342/274 530/343/276 533/341/276
f 188/342/274 216/344/277 527/345/278 530/343/276
f 216/344/277 212/346/279 524/347/280 527/345/278
f 236/348/281 521/349/282 524/350/280 212/351/279
f 248/352/283 518/353/282 521/349/282 236/348/281
f 228/354/283 515/355/284 518/353/282 248/352/283
f 228/354/283 224/356/283 512/357/285 515/355/284
f 224/356/283 246/358/286 509/359/285 512/357/285
f 246/358/286 42/360/242 506/361/241 509/359/285
f 68/1/1 47/4/1 46/362/287 67/363/287
f 77/3/3 74/2/2 73/364/288 76/365/289
f 41/6/5 39/5/4 37/366/290 40/367/291
f 54/8/7 66/7/6 64/368/292 52/369/293
f 62/10/9 60/9/8 58/370/294 61/371/295
f 45/12/11 51/11/10 49/372/296 43/373/297
f 39/5/4 71/13/1 70/374/287 37/366/290
f 56/14/12 54/8/7 52/369/293 55/375/298
f 71/13/1 68/1/1 67/363/287 70/374/287
f 74/2/2 56/14/12 55/375/298 73/364/288
f 60/9/8 77/3/3 76/365/289 58/370/294
f 47/4/1 45/12/11 43/373/297 46/362/287
f 83/15/13 81/16/13 79/362/299 82/363/300
f 89/3/15 87/2/14 85/364/301 88/365/302
f 51/18/10 93/17/16 91/366/303 49/367/296
f 95/20/17 62/19/9 61/368/295 94/369/304
f 101/10/19 99/21/18 97/370/305 100/371/306
f 107/22/21 105/11/20 103/372/307 106/373/308
f 93/17/16 111/13/13 109/374/309 91/366/303
f 113/23/22 95/20/17 94/369/304 112/375/310
f 111/13/13 83/15/13 82/363/300 109/374/309
f 87/2/14 113/23/22 112/375/310 85/364/301
f 99/21/18 89/3/15 88/365/302 97/370/305
f 81/16/13 107/22/21 106/373/308 79/362/299
f 119/1/23 117/4/23 115/362/311 118/363/311
f 125/3/25 123/2/24 121/364/312 124/365/313
f 105/18/20 129/5/26 127/366/314 103/367/307
f 131/8/27 101/19/19 100/368/306 130/369/315
f 137/10/29 135/9/28 133/370/316 136/371/317
f 143/12/31 141/11/30 139/372/318 142/373/319
f 129/5/26 147/13/23 145/374/311 127/366/314
f 149/23/32 131/8/27 130/369/315 148/375/320
f 147/13/23 119/1/23 118/363/311 145/374/311
f 123/2/24 149/23/32 148/375/320 121/364/312
f 135/9/28 125/3/25 124/365/313 133/370/316
f 117/4/23 143/12/31 142/373/319 115/362/311
f 155/1/33 153/4/33 151/362/321 154/363/322
f 161/3/35 159/2/34 157/364/323 160/365/324
f 141/18/30 165/17/36 163/366/325 139/367/318
f 167/20/37 137/19/29 136/368/317 166/369/326
f 173/24/39 171/9/38 169/370/327 172/371/328
f 179/12/41 177/25/40 175/372/329 178/373/330
f 165/17/36 183/13/33 181/374/321 163/366/325
f 185/14/42 167/20/37 166/369/326 184/375/331
f 183/13/33 155/1/33 154/363/322 181/374/321
f 159/2/34 185/14/42 184/375/331 157/364/323
f 171/9/38 161/3/35 160/365/324 169/370/327
f 153/4/33 179/12/41 178/373/330 151/362/321
f 191/1/43 189/16/43 187/362/332 190/363/332
f 197/3/45 195/2/44 193/364/333 196/365/334
f 177/6/40 201/5/46 199/366/335 175/367/329
f 203/8/47 173/7/39 172/368/328 202/369/336
f 209/10/49 207/21/48 205/370/337 208/371/338
f 215/22/51 213/11/50 211/372/339 214/373/340
f 201/5/46 219/13/43 217/374/332 199/366/335
f 221/23/52 203/8/47 202/369/336 220/375/341
f 219/13/43 191/1/43 190/363/332 217/374/332
f 195/2/44 221/23/52 220/375/341 193/364/333
f 207/21/48 197/3/45 196/365/334 205/370/337
f 189/16/43 215/22/51 214/373/340 187/362/332
f 227/1/53 225/4/53 223/362/342 226/363/343
f 233/26/55 231/2/54 229/364/344 232/365/345
f 213/18/50 237/5/56 235/366/346 211/367/339
f 239/8/57 209/19/49 208/368/338 238/369/347
f 66/24/6 243/9/58 241/370/348 64/371/292
f 245/12/59 41/25/5 40/372/291 244/373/349
f 237/5/56 249/13/53 247/374/343 235/366/346
f 251/23/60 239/8/57 238/369/347 250/375/350
f 249/13/53 227/1/53 226/363/343 247/374/343
f 231/2/54 251/23/60 250/375/350 229/364/344
f 243/9/58 233/26/55 232/365/345 241/370/348
f 225/4/53 245/12/59 244/373/349 223/362/342
f 65/28/62 53/27/61 52/369/293 64/368/292
f 242/31/65 65/34/62 64/371/292 241/370/348
f 234/35/67 242/31/65 241/370/348 232/365/345
f 230/37/69 234/35/67 232/365/345 229/364/344
f 252/39/71 230/37/69 229/364/344 250/375/350
f 240/41/73 252/39/71 250/375/350 238/369/347
f 210/43/75 240/41/73 238/369/347 208/368/338
f 206/45/77 210/48/75 208/371/338 205/370/337
f 198/49/79 206/45/77 205/370/337 196/365/334
f 194/51/81 198/49/79 196/365/334 193/364/333
f 222/53/83 194/51/81 193/364/333 220/375/341
f 204/55/85 222/53/83 220/375/341 202/369/336
f 174/57/87 204/55/85 202/369/336 172/368/328
f 170/59/89 174/61/87 172/371/328 169/370/327
f 162/62/91 170/59/89 169/370/327 160/365/324
f 158/64/93 162/62/91 160/365/324 157/364/323
f 186/65/95 158/64/93 157/364/323 184/375/331
f 168/67/97 186/65/95 184/375/331 166/369/326
f 138/69/99 168/67/97 166/369/326 136/368/317
f 134/71/101 138/73/99 136/371/317 133/370/316
f 126/74/103 134/71/101 133/370/316 124/365/313
f 122/76/105 126/74/103 124/365/313 121/364/312
f 150/78/107 122/76/105 121/364/312 148/375/320
f 132/80/109 150/78/107 148/375/320 130/369/315
f 102/82/111 132/80/109 130/369/315 100/368/306
f 98/84/113 102/87/111 100/371/306 97/370/305
f 90/88/115 98/84/113 97/370/305 88/365/302
f 86/90/117 90/88/115 88/365/302 85/364/301
f 114/92/119 86/90/117 85/364/301 112/375/310
f 96/94/121 114/92/119 112/375/310 94/369/304
f 63/96/123 96/94/121 94/369/304 61/368/295
f 59/98/125 63/100/123 61/371/295 58/370/294
f 78/101/127 59/98/125 58/370/294 76/365/289
f 75/103/129 78/101/127 76/365/289 73/364/288
f 57/106/131 75/105/129 73/364/288 55/375/298
f 53/27/61 57/106/131 55/375/298 52/369/293
f 288/110/134 291/109/133 289/376/351 286/377/352
f 291/112/133 294/111/135 292/378/353 289/376/351
f 294/111/135 297/113/136 295/379/354 292/378/353
f 297/113/136 300/114/137 298/380/355 295/379/354
f 300/114/137 303/115/138 301/381/356 298/380/355
f 303/115/138 306/116/139 304/382/357 301/381/356
f 306/116/139 309/117/140 307/383/358 304/382/357
f 309/119/140 312/118/141 310/384/359 307/383/358
f 312/118/141 315/120/142 313/385/360 310/384/359
f 315/120/142 318/121/143 316/386/361 313/385/360
f 318/121/143 321/122/144 319/387/362 316/386/361
f 321/122/144 324/123/145 322/388/363 319/387/362
f 324/123/145 327/124/146 325/389/364 322/388/363
f 327/126/146 330/125/147 328/390/365 325/389/364
f 330/125/147 333/127/148 331/391/366 328/390/365
f 333/127/148 336/128/149 334/392/367 331/391/366
f 336/128/149 339/129/150 337/393/368 334/392/367
f 339/129/150 342/130/151 340/394/369 337/393/368
f 342/130/151 345/131/152 343/395/370 340/394/369
f 345/133/152 348/132/153 346/396/371 343/395/370
f 348/132/153 351/134/154 349/397/372 346/396/371
f 351/134/154 354/135/155 352/398/373 349/397/372
f 354/135/155 357/136/156 355/399/374 352/398/373
f 357/136/156 360/137/157 358/400/375 355/399/374
f 360/137/157 254/138/158 253/401/376 358/400/375
f 254/140/158 258/139/159 256/402/377 253/401/376
f 258/139/159 261/141/160 259/403/378 256/402/377
f 261/141/160 264/142/161 262/404/379 259/403/378
f 264/142/161 267/143/162 265/405/380 262/404/379
f 267/143/162 270/144/163 268/406/381 265/405/380
f 270/144/163 273/145/164 271/407/382 268/406/381
f 273/147/164 276/146/165 274/408/383 271/407/382
f 276/146/165 279/148/166 277/409/384 274/408/383
f 279/148/166 282/149/167 280/410/385 277/409/384
f 282/151/167 285/150/168 283/411/386 280/412/385
f 285/150/168 288/110/134 286/377/352 283/411/386
f 257/152/169 255/155/172 253/401/376 256/402/377
f 362/154/171 366/153/170 364/413/387 361/414/388
f 260/156/173 257/152/169 256/402/377 259/403/378
f 366/153/170 369/157/174 367/415/389 364/413/387
f 263/158/175 260/156/173 259/403/378 262/404/379
f 369/157/174 372/159/176 370/416/390 367/415/389
f 266/160/177 263/158/175 262/404/379 265/405/380
f 372/159/176 375/161/178 373/417/391 370/416/390
f 269/162/179 266/160/177 265/405/380 268/406/381
f 375/161/178 378/163/180 376/418/392 373/417/391
f 272/164/181 269/162/179 268/406/381 271/407/382
f 378/163/180 381/165/182 379/419/393 376/418/392
f 275/166/183 272/164/181 271/407/382 274/408/383
f 381/165/182 384/167/184 382/420/394 379/419/393
f 278/168/185 275/166/183 274/408/383 277/409/384
f 384/167/184 387/169/186 385/421/395 382/420/394
f 281/170/187 278/168/185 277/409/384 280/410/385
f 387/169/186 390/171/188 388/422/396 385/421/395
f 284/172/173 281/175/187 280/412/385 283/411/386
f 390/174/188 393/173/189 391/423/397 388/424/396
f 287/176/190 284/179/173 283/411/386 286/377/352
f 393/178/189 396/177/191 394/425/398 391/426/397
f 290/180/192 287/183/190 286/377/352 289/376/351
f 396/182/191 399/181/193 397/427/399 394/428/398
f 293/184/194 290/187/192 289/376/351 292/378/353
f 399/186/193 402/185/195 400/429/400 397/430/399
f 296/188/196 293/191/194 292/378/353 295/379/354
f 402/190/195 405/189/197 403/431/401 400/432/400
f 299/192/198 296/195/196 295/379/354 298/380/355
f 405/194/197 408/193/199 406/433/402 403/434/401
f 302/196/200 299/199/198 298/380/355 301/381/356
f 408/198/199 411/197/201 409/435/403 406/436/402
f 305/200/202 302/203/200 301/381/356 304/382/357
f 411/202/201 414/201/203 412/437/404 409/438/403
f 308/204/204 305/207/202 304/382/357 307/383/358
f 414/206/203 417/205/205 415/439/405 412/440/404
f 311/208/206 308/211/204 307/383/358 310/384/359
f 417/210/205 420/209/207 418/441/406 415/442/405
f 314/212/208 311/215/206 310/384/359 313/385/360
f 420/214/207 423/213/209 421/443/407 418/444/406
f 317/216/210 314/219/208 313/385/360 316/386/361
f 423/218/209 426/217/211 424/445/408 421/446/407
f 320/220/212 317/223/210 316/386/361 319/387/362
f 426/222/211 429/221/213 427/447/409 424/448/408
f 323/224/214 320/227/212 319/387/362 322/388/363
f 429/226/213 432/225/215 430/449/410 427/450/409
f 326/228/216 323/231/214 322/388/363 325/389/364
f 432/230/215 435/229/217 433/451/411 430/452/410
f 329/232/218 326/235/216 325/389/364 328/390/365
f 435/234/217 438/233/219 436/453/412 433/454/411
f 332/236/220 329/239/218 328/390/365 331/391/366
f 438/238/219 441/237/221 439/455/413 436/456/412
f 335/240/222 332/243/220 331/391/366 334/392/367
f 441/242/221 444/241/223 442/457/414 439/458/413
f 338/244/208 335/247/222 334/392/367 337/393/368
f 444/246/223 447/245/224 445/459/415 442/460/414
f 341/248/225 338/251/208 337/393/368 340/394/369
f 447/250/224 450/249/226 448/461/416 445/462/415
f 344/252/227 341/255/225 340/394/369 343/395/370
f 450/254/226 453/253/228 451/463/417 448/464/416
f 347/256/229 344/259/227 343/395/370 346/396/371
f 453/258/228 456/257/230 454/465/418 451/466/417
f 350/260/231 347/263/229 346/396/371 349/397/372
f 456/262/230 459/261/232 457/467/419 454/468/418
f 353/264/233 350/267/231 349/397/372 352/398/373
f 459/266/232 462/265/234 460/469/420 457/470/419
f 356/268/235 353/271/233 352/398/373 355/399/374
f 462/270/234 465/269/236 463/471/421 460/472/420
f 359/272/237 356/275/235 355/399/374 358/400/375
f 465/274/236 468/273/238 466/473/422 463/474/421
f 255/155/172 359/277/237 358/400/375 253/401/376
f 468/276/238 362/154/171 361/414/388 466/475/422
f 365/413/423 363/414/424 361/414/388 364/413/387
f 473/414/425 471/413/426 469/413/427 472/414/428
f 368/415/429 365/413/423 364/413/387 367/415/389
f 471/413/426 477/415/430 475/415/431 469/413/427
f 371/416/432 368/415/429 367/415/389 370/416/390
f 477/415/430 480/416/433 478/416/434 475/415/431
f 374/417/435 371/416/432 370/416/390 373/417/391
f 480/416/433 483/417/436 481/417/437 478/416/434
f 377/418/438 374/417/435 373/417/391 376/418/392
f 483/417/436 486/418/439 484/418/440 481/417/437
f 380/419/441 377/418/438 376/418/392 379/419/393
f 486/418/439 489/419/442 487/419/443 484/418/440
f 383/420/444 380/419/441 379/419/393 382/420/394
f 489/419/442 492/420/445 490/420/446 487/419/443
f 386/421/447 383/420/444 382/420/394 385/421/395
f 492/420/445 495/421/448 493/421/449 490/420/446
f 389/422/450 386/421/447 385/421/395 388/422/396
f 495/421/448 498/422/451 496/422/452 493/421/449
f 392/476/453 389/422/450 388/422/396 391/476/397
f 498/422/451 501/476/454 499/476/455 496/422/452
f 395/477/456 392/476/453 391/476/397 394/477/398
f 501/476/454 504/477/457 502/477/458 499/476/455
f 398/478/459 395/477/456 394/477/398 397/478/399
f 504/477/457 507/478/460 505/478/461 502/477/458
f 401/479/462 398/478/459 397/478/399 400/479/400
f 507/478/460 510/479/463 508/479/464 505/478/461
f 404/480/465 401/479/462 400/479/400 403/480/401
f 510/479/463 513/480/466 511/480/467 508/479/464
f 407/481/468 404/480/465 403/480/401 406/481/402
f 513/480/466 516/481/469 514/481/470 511/480/467
f 410/482/471 407/481/468 406/481/402 409/482/403
f 516/481/469 519/482/472 517/482/473 514/481/470
f 413/483/474 410/482/471 409/482/403 412/483/404
f 519/482/472 522/483/475 520/483/476 517/482/473
f 416/484/477 413/483/474 412/483/404 415/484/405
f 522/483/475 525/484/478 523/484/479 520/483/476
f 419/485/480 416/484/477 415/484/405 418/485/406
f 525/484/478 528/485/481 526/485/482 523/484/479
f 422/486/483 419/485/480 418/485/406 421/486/407
f 528/485/481 531/486/484 529/486/485 526/485/482
f 425/487/486 422/486/483 421/486/407 424/487/408
f 531/486/484 534/487/487 532/487/488 529/486/485
f 428/488/489 425/487/486 424/487/408 427/488/409
f 534/487/487 537/488/490 535/488/491 532/487/488
f 431/489/492 428/488/489 427/488/409 430/489/410
f 537/488/490 540/489/493 538/489/494 535/488/491
f 434/490/495 431/489/492 430/489/410 433/490/411
f 540/489/493 543/490/496 541/490/497 538/489/494
f 437/491/498 434/490/495 433/490/411 436/491/412
f 543/490/496 546/491/499 544/491/500 541/490/497
f 440/492/501 437/491/498 436/491/412 439/492/413
f 546/491/499 549/492/502 547/492/503 544/491/500
f 443/493/504 440/492/501 439/492/413 442/493/414
f 549/492/502 552/493/505 550/493/506 547/492/503
f 446/494/507 443/493/504 442/493/414 445/494/415
f 552/493/505 555/494/508 553/494/509 550/493/506
f 449/495/510 446/494/507 445/494/415 448/495/416
f 555/494/508 558/495/511 556/495/512 553/494/509
f 452/496/513 449/495/510 448/495/416 451/496/417
f 558/495/511 561/496/514 559/496/515 556/495/512
f 455/497/516 452/496/513 451/496/417 454/497/418
f 561/496/514 564/497/517 562/497/518 559/496/515
f 458/498/519 455/497/516 454/497/418 457/498/419
f 564/497/517 567/498/520 565/498/521 562/497/518
f 461/499/522 458/498/519 457/498/419 460/499/420
f 567/498/520 570/499/523 568/499/524 565/498/521
f 464/500/525 461/499/522 460/499/420 463/500/421
f 570/499/523 573/500/526 571/500/527 568/499/524
f 467/475/528 464/500/525 463/500/421 466/475/422
f 573/500/526 576/475/529 574/475/530 571/500/527
f 363/414/424 467/475/528 466/475/422 361/414/388
f 576/475/529 473/414/425 472/414/428 574/475/530
f 38/278/239 42/281/242 40/367/291 37/366/290
f 506/280/241 503/279/240 502/477/458 505/478/461
f 72/282/243 38/278/239 37/366/290 70/374/287
f 503/279/240 500/283/240 499/476/455 502/477/458
f 69/284/243 72/282/243 70/374/287 67/363/287
f 500/283/240 497/285/244 496/422/452 499/476/455
f 48/286/243 69/284/243 67/363/287 46/362/287
f 497/285/244 494/287/245 493/421/449 496/422/452
f 44/288/239 48/286/243 46/362/287 43/373/297
f 494/287/245 491/289/245 490/420/446 493/421/449
f 50/290/246 44/288/239 43/373/297 49/372/296
f 491/289/245 488/291/247 487/419/443 490/420/446
f 92/292/248 50/295/246 49/367/296 91/366/303
f 488/294/247 485/293/249 484/418/440 487/419/443
f 110/296/250 92/292/248 91/366/303 109/374/309
f 485/293/249 482/297/251 481/417/437 484/418/440
f 84/298/250 110/296/250 109/374/309 82/363/300
f 482/297/251 479/299/252 478/416/434 481/417/437
f 80/300/250 84/298/250 82/363/300 79/362/299
f 479/299/252 476/301/252 475/415/431 478/416/434
f 108/302/253 80/300/250 79/362/299 106/373/308
f 476/301/252 470/303/254 469/413/427 475/415/431
f 104/304/255 108/302/253 106/373/308 103/372/307
f 470/303/254 474/305/256 472/414/428 469/413/427
f 128/306/257 104/309/255 103/367/307 127/366/314
f 474/308/256 575/307/258 574/475/530 472/414/428
f 146/310/259 128/306/257 127/366/314 145/374/311
f 575/307/258 572/311/258 571/500/527 574/475/530
f 120/312/259 146/310/259 145/374/311 118/363/311
f 572/311/258 569/313/260 568/499/524 571/500/527
f 116/314/259 120/312/259 118/363/311 115/362/311
f 569/313/260 566/315/261 565/498/521 568/499/524
f 144/316/262 116/314/259 115/362/311 142/373/319
f 566/315/261 563/317/261 562/497/518 565/498/521
f 140/318/263 144/316/262 142/373/319 139/372/318
f 563/317/261 560/319/264 559/496/515 562/497/518
f 164/320/265 140/323/263 139/367/318 163/366/325
f 560/322/264 557/321/266 556/495/512 559/496/515
f 182/324/267 164/320/265 163/366/325 181/374/321
f 557/321/266 554/325/266 553/494/509 556/495/512
f 156/326/267 182/324/267 181/374/321 154/363/322
f 554/325/266 551/327/268 550/493/506 553/494/509
f 152/328/267 156/326/267 154/363/322 151/362/321
f 551/327/268 548/329/269 547/492/503 550/493/506
f 180/330/265 152/328/267 151/362/321 178/373/330
f 548/329/269 545/331/269 544/491/500 547/492/503
f 176/332/270 180/330/265 178/373/330 175/372/329
f 545/331/269 542/333/271 541/490/497 544/491/500
f 200/334/272 176/337/270 175/367/329 199/366/335
f 542/336/271 539/335/273 538/489/494 541/490/497
f 218/338/274 200/334/272 199/366/335 217/374/332
f 539/335/273 536/339/275 535/488/491 538/489/494
f 192/340/274 218/338/274 217/374/332 190/363/332
f 536/339/275 533/341/276 532/487/488 535/488/491
f 188/342/274 192/340/274 190/363/332 187/362/332
f 533/341/276 530/343/276 529/486/485 532/487/488
f 216/344/277 188/342/274 187/362/332 214/373/340
f 530/343/276 527/345/278 526/485/482 529/486/485
f 212/346/279 216/344/277 214/373/340 211/372/339
f 527/345/278 524/347/280 523/484/479 526/485/482
f 236/348/281 212/351/279 211/367/339 235/366/346
f 524/350/280 521/349/282 520/483/476 523/484/479
f 248/352/283 236/348/281 235/366/346 247/374/343
f 521/349/282 518/353/282 517/482/473 520/483/476
f 228/354/283 248/352/283 247/374/343 226/363/343
f 518/353/282 515/355/284 514/481/470 517/482/473
f 224/356/283 228/354/283 226/363/343 223/362/342
f 515/355/284 512/357/285 511/480/467 514/481/470
f 246/358/286 224/356/283 223/362/342 244/373/349
f 512/357/285 509/359/285 508/479/464 511/480/467
f 42/360/242 246/358/286 244/373/349 40/372/291
f 509/359/285 506/361/241 505/478/461 508/479/464
f 471/413/426 473/414/425 583/414/531 582/413/532
f 581/413/532 584/414/531 585/414/531 580/413/532
f 363/414/424 365/413/423 577/413/532 588/414/531
f 587/414/531 578/413/532 579/413/532 586/414/531
f 477/415/430 471/413/426 582/413/532 594/415/533
f 593/415/533 581/413/532 580/413/532 592/415/533
f 365/413/423 368/415/429 589/415/533 577/413/532
f 578/413/532 590/415/533 591/415/533 579/413/532
f 480/416/433 477/415/430 594/415/533 600/416/534
f 599/416/534 593/415/533 592/415/533 598/416/534
f 368/415/429 371/416/432 595/416/534 589/415/533
f 590/415/533 596/416/534 597/416/534 591/415/533
f 483/417/436 480/416/433 600/416/534 606/417/535
f 605/417/535 599/416/534 598/416/534 604/417/535
f 371/416/432 374/417/435 601/417/535 595/416/534
f 596/416/534 602/417/535 603/417/535 597/416/534
f 486/418/439 483/417/436 606/417/535 612/418/536
f 611/418/536 605/417/535 604/417/535 610/418/536
f 374/417/435 377/418/438 607/418/536 601/417/535
f 602/417/535 608/418/536 609/418/536 603/417/535
f 489/419/442 486/418/439 612/418/536 618/419/537
f 617/419/537 611/418/536 610/418/536 616/419/537
f 377/418/438 380/419/441 613/419/537 607/418/536
f 608/418/536 614/419/537 615/419/537 609/418/536
f 492/420/445 489/419/442 618/419/537 624/420/538
f 623/420/538 617/419/537 616/419/537 622/420/538
f 380/419/441 383/420/444 619/420/538 613/419/537
f 614/419/537 620/420/538 621/420/538 615/419/537
f 495/421/448 492/420/445 624/420/538 630/421/539
f 629/421/539 623/420/538 622/420/538 628/421/539
f 383/420/444 386/421/447 625/421/539 619/420/538
f 620/420/538 626/421/539 627/421/539 621/420/538
f 498/422/451 495/421/448 630/421/539 636/422/540
f 635/422/540 629/421/539 628/421/539 634/422/540
f 386/421/447 389/422/450 631/422/540 625/421/539
f 626/421/539 632/422/540 633/422/540 627/421/539
f 501/476/454 498/422/451 636/422/540 642/476/541
f 641/476/541 635/422/540 634/422/540 640/476/541
f 389/422/450 392/476/453 637/476/541 631/422/540
f 632/422/540 638/476/541 639/476/541 633/422/540
f 504/477/457 501/476/454 642/476/541 648/477/542
f 647/477/542 641/476/541 640/476/541 646/477/542
f 392/476/453 395/477/456 643/477/542 637/476/541
f 638/476/541 644/477/542 645/477/542 639/476/541
f 507/478/460 504/477/457 648/477/542 654/478/543
f 653/478/543 647/477/542 646/477/542 652/478/543
f 395/477/456 398/478/459 649/478/543 643/477/542
f 644/477/542 650/478/543 651/478/543 645/477/542
f 510/479/463 507/478/460 654/478/543 660/479/544
f 659/479/544 653/478/543 652/478/543 658/479/544
f 398/478/459 401/479/462 655/479/544 649/478/543
f 650/478/543 656/479/544 657/479/544 651/478/543
f 513/480/466 510/479/463 660/479/544 666/480/545
f 665/480/545 659/479/544 658/479/544 664/480/545
f 401/479/462 404/480/465 661/480/545 655/479/544
f 656/479/544 662/480/545 663/480/545 657/479/544
f 516/481/469 513/480/466 666/480/545 672/481/546
f 671/481/546 665/480/545 664/480/545 670/481/546
f 404/480/465 407/481/468 667/481/546 661/480/545
f 662/480/545 668/481/546 669/481/546 663/480/545
f 519/482/472 516/481/469 672/481/546 678/482/547
f 677/482/547 671/481/546 670/481/546 676/482/547
f 407/481/468 410/482/471 673/482/547 667/481/546
f 668/481/546 674/482/547 675/482/547 669/481/546
f 522/483/475 519/482/472 678/482/547 684/483/548
f 683/483/548 677/482/547 676/482/547 682/483/548
f 410/482/471 413/483/474 679/483/548 673/482/547
f 674/482/547 680/483/548 681/483/548 675/482/547
f 525/484/478 522/483/475 684/483/548 690/484/549
f 689/484/549 683/483/548 682/483/548 688/484/549
f 413/483/474 416/484/477 685/484/549 679/483/548
f 680/483/548 686/484/549 687/484/549 681/483/548
f 528/485/481 525/484/478 690/484/549 696/485/550
f 695/485/550 689/484/549 688/484/549 694/485/550
f 416/484/477 419/485/480 691/485/550 685/484/549
f 686/484/549 692/485/550 693/485/550 687/484/549
f 531/486/484 528/485/481 696/485/550 702/486/551
f 701/486/551 695/485/550 694/485/550 700/486/551
f 419/485/480 422/486/483 697/486/551 691/485/550
f 692/485/550 698/486/551 699/486/551 693/485/550
f 534/487/487 531/486/484 702/486/551 708/487/552
f 707/487/552 701/486/551 700/486/551 706/487/552
f 422/486/483 425/487/486 703/487/552 697/486/551
f 698/486/551 704/487/552 705/487/552 699/486/551
f 537/488/490 534/487/487 708/487/552 714/488/553
f 713/488/553 707/487/552 706/487/552 712/488/553
f 425/487/486 428/488/489 709/488/553 703/487/552
f 704/487/552 710/488/553 711/488/553 705/487/552
f 540/489/493 537/488/490 714/488/553 720/489/554
f 719/489/554 713/488/553 712/488/553 718/489/554
f 428/488/489 431/489/492 715/489/554 709/488/553
f 710/488/553 716/489/554 717/489/554 711/488/553
f 543/490/496 540/489/493 720/489/554 726/490/555
f 725/490/555 719/489/554 718/489/554 724/490/555
f 431/489/492 434/490/495 721/490/555 715/489/554
f 716/489/554 722/490/555 723/490/555 717/489/554
f 546/491/499 543/490/496 726/490/555 732/491/556
f 731/491/556 725/490/555 724/490/555 730/491/556
f 434/490/495 437/491/498 727/491/556 721/490/555
f 722/490/555 728/491/556 729/491/556 723/490/555
f 549/492/502 546/491/499 732/491/556 738/492/557
f 737/492/557 731/491/556 730/491/556 736/492/557
f 437/491/498 440/492/501 733/492/557 727/491/556
f 728/491/556 734/492/557 735/492/557 729/491/556
f 552/493/505 549/492/502 738/492/557 744/493/558
f 743/493/558 737/492/557 736/492/557 742/493/558
f 440/492/501 443/493/504 739/493/558 733/492/557
f 734/492/557 740/493/558 741/493/558 735/492/557
f 555/494/508 552/493/505 744/493/558 750/494/559
f 749/494/559 743/493/558 742/493/558 748/494/559
f 443/493/504 446/494/507 745/494/559 739/493/558
f 740/493/558 746/494/559 747/494/559 741/493/558
f 558/495/511 555/494/508 750/494/559 756/495/560
f 755/495/560 749/494/559 748/494/559 754/495/560
f 446/494/507 449/495/510 751/495/560 745/494/559
f 746/494/559 752/495/560 753/495/560 747/494/559
f 561/496/514 558/495/511 756/495/560 762/496/561
f 761/496/561 755/495/560 754/495/560 760/496/561
f 449/495/510 452/496/513 757/496/561 751/495/560
f 752/495/560 758/496/561 759/496/561 753/495/560
f 564/497/517 561/496/514 762/496/561 768/497/562
f 767/497/562 761/496/561 760/496/561 766/497/562
f 452/496/513 455/497/516 763/497/562 757/496/561
f 758/496/561 764/497/562 765/497/562 759/496/561
f 567/498/520 564/497/517 768/497/562 774/498/563
f 773/498/563 767/497/562 766/497/562 772/498/563
f 455/497/516 458/498/519 769/498/563 763/497/562
f 764/497/562 770/498/563 771/498/563 765/497/562
f 570/499/523 567/498/520 774/498/563 780/499/564
f 779/499/564 773/498/563 772/498/563 778/499/564
f 458/498/519 461/499/522 775/499/564 769/498/563
f 770/498/563 776/499/564 777/499/564 771/498/563
f 573/500/526 570/499/523 780/499/564 786/500/565
f 785/500/565 779/499/564 778/499/564 784/500/565
f 461/499/522 464/500/525 781/500/565 775/499/564
f 776/499/564 782/500/565 783/500/565 777/499/564
f 576/475/529 573/500/526 786/500/565 792/475/566
f 791/475/566 785/500/565 784/500/565 790/475/566
f 464/500/525 467/475/528 787/475/566 781/500/565
f 782/500/565 788/475/566 789/475/566 783/500/565
f 473/414/425 576/475/529 792/475/566 583/414/531
f 584/414/531 791/475/566 790/475/566 585/414/531
f 467/475/528 363/414/424 588/414/531 787/475/566
f 788/475/566 587/414/531 586/414/531 789/475/566
f 580/413/567 585/414/568 793/414/568 794/413/567
f 585/414/568 790/475/569 828/475/569 793/414/568
f 790/475/569 784/500/570 827/500/570 828/475/569
f 784/500/570 778/499/571 826/499/571 827/500/570
f 778/499/571 772/498/572 825/498/572 826/499/571
f 772/498/572 766/497/573 824/497/573 825/498/572
f 766/497/573 760/496/574 823/496/574 824/497/573
f 760/496/574 754/495/575 822/495/575 823/496/574
f 754/495/575 748/494/576 821/494/576 822/495/575
f 748/494/576 742/493/577 820/493/577 821/494/576
f 742/493/577 736/492/578 819/492/578 820/493/577
f 736/492/578 730/491/579 818/491/579 819/492/578
f 730/491/579 724/490/580 817/490/580 818/491/579
f 724/490/580 718/489/581 816/489/581 817/490/580
f 718/489/581 712/488/582 815/488/582 816/489/581
f 712/488/582 706/487/583 814/487/583 815/488/582
f 706/487/583 700/486/584 813/486/584 814/487/583
f 700/486/584 694/485/585 812/485/585 813/486/584
f 694/485/585 688/484/586 811/484/586 812/485/585
f 688/484/586 682/483/587 810/483/587 811/484/586
f 682/483/587 676/482/588 809/482/588 810/483/587
f 676/482/588 670/481/589 808/481/589 809/482/588
f 670/481/589 664/480/590 807/480/590 808/481/589
f 664/480/590 658/479/591 806/479/591 807/480/590
f 658/479/591 652/478/592 805/478/592 806/479/591
f 652/478/592 646/477/593 804/477/593 805/478/592
f 646/477/593 640/476/594 803/476/594 804/477/593
f 640/476/594 634/422/595 802/422/595 803/476/594
f 634/422/595 628/421/596 801/421/596 802/422/595
f 628/421/596 622/420/597 800/420/597 801/421/596
f 622/420/597 616/419/598 799/419/598 800/420/597
f 616/419/598 610/418/599 798/418/599 799/419/598
f 610/418/599 604/417/600 797/417/600 798/418/599
f 604/417/600 598/416/601 796/416/601 797/417/600
f 598/416/601 592/415/602 795/415/602 796/416/601
f 592/415/602 580/413/567 794/413/567 795/415/602
f 586/414/603 579/413/604 794/413/604 793/414/603
f 579/413/604 591/415/605 795/415/605 794/413/604
f 591/415/605 597/416/606 796/416/606 795/415/605
f 597/416/606 603/417/607 797/417/607 796/416/606
f 603/417/607 609/418/608 798/418/608 797/417/607
f 609/418/608 615/419/609 799/419/609 798/418/608
f 615/419/609 621/420/610 800/420/610 799/419/609
f 621/420/610 627/421/611 801/421/611 800/420/610
f 627/421/611 633/422/612 802/422/612 801/421/611
f 633/422/612 639/476/613 803/476/613 802/422/612
f 639/476/613 645/477/614 804/477/614 803/476/613
f 645/477/614 651/478/615 805/478/615 804/477/614
f 651/478/615 657/479/616 806/479/616 805/478/615
f 657/479/616 663/480/617 807/480/617 806/479/616
f 663/480/617 669/481/618 808/481/618 807/480/617
f 669/481/618 675/482/619 809/482/619 808/481/618
f 675/482/619 681/483/620 810/483/620 809/482/619
f 681/483/620 687/484/621 811/484/621 810/483/620
f 687/484/621 693/485/622 812/485/622 811/484/621
f 693/485/622 699/486/623 813/486/623 812/485/622
f 699/486/623 705/487/624 814/487/624 813/486/623
f 705/487/624 711/488/625 815/488/625 814/487/624
f 711/488/625 717/489/626 816/489/626 815/488/625
f 717/489/626 723/490/627 817/490/627 816/489/626
f 723/490/627 729/491/628 818/491/628 817/490/627
f 729/491/628 735/492/629 819/492/629 818/491/628
f 735/492/629 741/493/630 820/493/630 819/492/629
f 741/493/630 747/494/631 821/494/631 820/493/630
f 747/494/631 753/495/632 822/495/632 821/494/631
f 753/495/632 759/496/633 823/496/633 822/495/632
f 759/496/633 765/497/634 824/497/634 823/496/633
f 765/497/634 771/498/635 825/498/635 824/497/634
f 771/498/635 777/499/636 826/499/636 825/498/635
f 777/499/636 783/500/637 827/500/637 826/499/636
f 783/500/637 789/475/638 828/475/638 827/500/637
f 789/475/638 586/414/603 793/414/603 828/475/638
f 582/413/639 583/414/640 829/414/640 830/413/639
f 583/414/640 792/475/641 864/475/641 829/414/640
f 792/475/641 786/500/642 863/500/642 864/475/641
f 786/500/642 780/499/643 862/499/643 863/500/642
f 780/499/643 774/498/644 861/498/644 862/499/643
f 774/498/644 768/497/645 860/497/645 861/498/644
f 768/497/645 762/496/646 859/496/646 860/497/645
f 762/496/646 756/495/647 858/495/647 859/496/646
f 756/495/647 750/494/648 857/494/648 858/495/647
f 750/494/648 744/493/649 856/493/649 857/494/648
f 744/493/649 738/492/650 855/492/650 856/493/649
f 738/492/650 732/491/651 854/491/651 855/492/650
f 732/491/651 726/490/652 853/490/652 854/491/651
f 726/490/652 720/489/653 852/489/653 853/490/652
f 720/489/653 714/488/654 851/488/654 852/489/653
f 714/488/654 708/487/655 850/487/655 851/488/654
f 708/487/655 702/486/656 849/486/656 850/487/655
f 702/486/656 696/485/657 848/485/657 849/486/656
f 696/485/657 690/484/658 847/484/658 848/485/657
f 690/484/658 684/483/659 846/483/659 847/484/658
f 684/483/659 678/482/660 845/482/660 846/483/659
f 678/482/660 672/481/661 844/481/661 845/482/660
f 672/481/661 666/480/662 843/480/662 844/481/661
f 666/480/662 660/479/663 842/479/663 843/480/662
f 660/479/663 654/478/664 841/478/664 842/479/663
f 654/478/664 648/477/665 840/477/665 841/478/664
f 648/477/665 642/476/666 839/476/666 840/477/665
f 642/476/666 636/422/667 838/422/667 839/476/666
f 636/422/667 630/421/668 837/421/668 838/422/667
f 630/421/668 624/420/669 836/420/669 837/421/668
f 624/420/669 618/419/670 835/419/670 836/420/669
f 618/419/670 612/418/671 834/418/671 835/419/670
f 612/418/671 606/417/672 833/417/672 834/418/671
f 606/417/672 600/416/673 832/416/673 833/417/672
f 600/416/673 594/415/674 831/415/674 832/416/673
f 594/415/674 582/413/639 830/413/639 831/415/674
f 584/414/603 581/413/604 830/413/604 829/414/603
f 581/413/604 593/415/605 831/415/605 830/413/604
f 593/415/605 599/416/606 832/416/606 831/415/605
f 599/416/606 605/417/607 833/417/607 832/416/606
f 605/417/607 611/418/608 834/418/608 833/417/607
f 611/418/608 617/419/609 835/419/609 834/418/608
f 617/419/609 623/420/610 836/420/610 835/419/609
f 623/420/610 629/421/611 837/421/611 836/420/610
f 629/421/611 635/422/612 838/422/612 837/421/611
f 635/422/612 641/476/613 839/476/613 838/422/612
f 641/476/613 647/477/614 840/477/614 839/476/613
f 647/477/614 653/478/615 841/478/615 840/477/614
f 653/478/615 659/479/616 842/479/616 841/478/615
f 659/479/616 665/480/617 843/480/617 842/479/616
f 665/480/617 671/481/618 844/481/618 843/480/617
f 671/481/618 677/482/619 845/482/619 844/481/618
f 677/482/619 683/483/620 846/483/620 845/482/619
f 683/483/620 689/484/621 847/484/621 846/483/620
f 689/484/621 695/485/622 848/485/622 847/484/621
f 695/485/622 701/486/623 849/486/623 848/485/622
f 701/486/623 707/487/624 850/487/624 849/486/623
f 707/487/624 713/488/625 851/488/625 850/487/624
f 713/488/625 719/489/626 852/489/626 851/488/625
f 719/489/626 725/490/627 853/490/627 852/489/626
f 725/490/627 731/491/628 854/491/628 853/490/627
f 731/491/628 737/492/629 855/492/629 854/491/628
f 737/492/629 743/493/630 856/493/630 855/492/629
f 743/493/630 749/494/631 857/494/631 856/493/630
f 749/494/631 755/495/632 858/495/632 857/494/631
f 755/495/632 761/496/633 859/496/633 858/495/632
f 761/496/633 767/497/634 860/497/634 859/496/633
f 767/497/634 773/498/635 861/498/635 860/497/634
f 773/498/635 779/499/636 862/499/636 861/498/635
f 779/499/636 785/500/637 863/500/637 862/499/636
f 785/500/637 791/475/638 864/475/638 863/500/637
f 791/475/638 584/414/603 829/414/603 864/475/638
f 588/414/675 577/413/676 865/413/676 900/414/675
f 577/413/676 589/415/677 866/415/677 865/413/676
f 589/415/677 595/416/678 867/416/678 866/415/677
f 595/416/678 601/417/679 868/417/679 867/416/678
f 601/417/679 607/418/680 869/418/680 868/417/679
f 607/418/680 613/419/681 870/419/681 869/418/680
f 613/419/681 619/420/682 871/420/682 870/419/681
f 619/420/682 625/421/683 872/421/683 871/420/682
f 625/421/683 631/422/684 873/422/684 872/421/683
f 631/422/684 637/476/685 874/476/685 873/422/684
f 637/476/685 643/477/686 875/477/686 874/476/685
f 643/477/686 649/478/687 876/478/687 875/477/686
f 649/478/687 655/479/688 877/479/688 876/478/687
f 655/479/688 661/480/689 878/480/689 877/479/688
f 661/480/689 667/481/690 879/481/690 878/480/689
f 667/481/690 673/482/691 880/482/691 879/481/690
f 673/482/691 679/483/692 881/483/692 880/482/691
f 679/483/692 685/484/693 882/484/693 881/483/692
f 685/484/693 691/485/694 883/485/694 882/484/693
f 691/485/694 697/486/695 884/486/695 883/485/694
f 697/486/695 703/487/696 885/487/696 884/486/695
f 703/487/696 709/488/697 886/488/697 885/487/696
f 709/488/697 715/489/698 887/489/698 886/488/697
f 715/489/698 721/490/699 888/490/699 887/489/698
f 721/490/699 727/491/700 889/491/700 888/490/699
f 727/491/700 733/492/701 890/492/701 889/491/700
f 733/492/701 739/493/702 891/493/702 890/492/701
f 739/493/702 745/494/703 892/494/703 891/493/702
f 745/494/703 751/495/704 893/495/704 892/494/703
f 751/495/704 757/496/705 894/496/705 893/495/704
f 757/496/705 763/497/706 895/497/706 894/496/705
f 763/497/706 769/498/707 896/498/707 895/497/706
f 769/498/707 775/499/708 897/499/708 896/498/707
f 775/499/708 781/500/709 898/500/709 897/499/708
f 781/500/709 787/475/710 899/475/710 898/500/709
f 787/475/710 588/414/675 900/414/675 899/475/710
f 578/413/567 587/414/568 900/414/568 865/413/567
f 587/414/568 788/475/569 899/475/569 900/414/568
f 788/475/569 782/500/570 898/500/570 899/475/569
f 782/500/570 776/499/571 897/499/571 898/500/570
f 776/499/571 770/498/572 896/498/572 897/499/571
f 770/498/572 764/497/573 895/497/573 896/498/572
f 764/497/573 758/496/574 894/496/574 895/497/573
f 758/496/574 752/495/575 893/495/575 894/496/574
f 752/495/575 746/494/576 892/494/576 893/495/575
f 746/494/576 740/493/577 891/493/577 892/494/576
f 740/493/577 734/492/578 890/492/578 891/493/577
f 734/492/578 728/491/579 889/491/579 890/492/578
f 728/491/579 722/490/580 888/490/580 889/491/579
f 722/490/580 716/489/581 887/489/581 888/490/580
f 716/489/581 710/488/582 886/488/582 887/489/581
f 710/488/582 704/487/583 885/487/583 886/488/582
f 704/487/583 698/486/584 884/486/584 885/487/583
f 698/486/584 692/485/585 883/485/585 884/486/584
f 692/485/585 686/484/586 882/484/586 883/485/585
f 686/484/586 680/483/587 881/483/587 882/484/586
f 680/483/587 674/482/588 880/482/588 881/483/587
f 674/482/588 668/481/589 879/481/589 880/482/588
f 668/481/589 662/480/590 878/480/590 879/481/589
f 662/480/590 656/479/591 877/479/591 878/480/590
f 656/479/591 650/478/592 876/478/592 877/479/591
f 650/478/592 644/477/593 875/477/593 876/478/592
f 644/477/593 638/476/594 874/476/594 875/477/593
f 638/476/594 632/422/595 873/422/595 874/476/594
f 632/422/595 626/421/596 872/421/596 873/422/595
f 626/421/596 620/420/597 871/420/597 872/421/596
f 620/420/597 614/419/598 870/419/598 871/420/597
f 614/419/598 608/418/599 869/418/599 870/419/598
f 608/418/599 602/417/600 868/417/600 869/418/599
f 602/417/600 596/416/601 867/416/601 868/417/600
f 596/416/601 590/415/602 866/415/602 867/416/601
f 590/415/602 578/413/567 865/413/567 866/415/602
